<svg xmlns="http://www.w3.org/2000/svg" xmlns:xlink="http://www.w3.org/1999/xlink" width="0" height="0" style="position:absolute">
	
		<symbol id="icon-achievement-business-processes" viewBox="0 0 24 24">
			<path d="M9.5 6.25V7.5h5V6.25c-.02-.146-.104-.23-.25-.25h-4.5c-.146.02-.23.104-.25.25zM8 7.5V6.25c.02-.5.188-.917.5-1.25.333-.313.75-.48 1.25-.5h4.5c.5.02.917.188 1.25.5.313.333.48.75.5 1.25V7.5h2c.563.02 1.031.219 1.406.594s.573.844.594 1.406v8c-.02.563-.219 1.031-.594 1.406s-.843.573-1.406.594H6c-.563-.02-1.031-.219-1.406-.594S4.02 18.063 4 17.5v-8c.02-.563.219-1.031.594-1.406S5.437 7.52 6 7.5h2zM5.5 14v3.5c.02.313.188.48.5.5h12c.313-.02.48-.188.5-.5V14H14v.5a.974.974 0 0 1-.281.719.974.974 0 0 1-.719.281h-2a.974.974 0 0 1-.719-.281A.974.974 0 0 1 10 14.5V14H5.5zm13-1.5v-3c-.02-.313-.188-.48-.5-.5H6c-.313.02-.48.188-.5.5v3h13z" fill="#2884E0"></path>
		</symbol>
	
		<symbol id="icon-achievement-friendly-atmosphere" viewBox="0 0 24 24">
			<path d="M6.5 9c-.938-.02-1.656-.438-2.156-1.25-.459-.833-.459-1.667 0-2.5.5-.813 1.218-1.23 2.156-1.25.938.02 1.656.438 2.156 1.25.459.833.459 1.667 0 2.5-.5.813-1.219 1.23-2.156 1.25zM18 9c-.938-.02-1.656-.438-2.156-1.25-.459-.833-.459-1.667 0-2.5.5-.813 1.219-1.23 2.156-1.25.938.02 1.656.438 2.156 1.25.459.833.459 1.667 0 2.5-.5.813-1.218 1.23-2.156 1.25zM2 13.344c.02-.959.344-1.75.969-2.375S4.385 10.02 5.344 10h1.312c.5 0 .969.104 1.407.313C8.02 10.541 8 10.77 8 11c.042 1.23.49 2.23 1.344 3H2.656c-.396-.042-.614-.26-.656-.656zM14.656 14c.854-.77 1.302-1.77 1.344-3 0-.23-.02-.458-.063-.688A3.23 3.23 0 0 1 17.345 10h1.312c.959.02 1.75.344 2.375.969s.948 1.416.969 2.375c-.042.396-.26.614-.656.656h-6.688zM12 9.5c-.563.02-1 .27-1.313.75-.25.5-.25 1 0 1.5.313.48.75.73 1.313.75.563-.02 1-.27 1.313-.75.25-.5.25-1 0-1.5-.313-.48-.75-.73-1.313-.75zm0 4.5a2.896 2.896 0 0 1-1.5-.406A3.007 3.007 0 0 1 9 11a3.007 3.007 0 0 1 1.5-2.594c.458-.27.958-.406 1.5-.406s1.042.135 1.5.406A3.007 3.007 0 0 1 15 11a3.007 3.007 0 0 1-1.5 2.594c-.458.27-.958.406-1.5.406zm-1.844 2.5c-.625.02-1.166.208-1.625.563-.479.375-.791.854-.937 1.437h8.812a2.572 2.572 0 0 0-.937-1.438c-.459-.354-1-.541-1.625-.562h-3.688zm0-1.5h3.688c1.166.02 2.146.427 2.937 1.219.792.791 1.198 1.77 1.219 2.937-.042.521-.323.802-.844.844H6.844c-.521-.042-.802-.323-.844-.844.02-1.166.427-2.146 1.219-2.937.791-.792 1.77-1.198 2.937-1.219z" fill="#2884E0"></path>
		</symbol>
	
		<symbol id="icon-achievement-range" viewBox="0 0 24 24">
			<path d="M10.594 4.092c.396.25.5.583.312 1L8.375 9.998h7.25l-2.531-4.906c-.188-.417-.084-.75.312-1 .417-.187.75-.083 1 .313l2.906 5.593h2.938c.458.042.708.292.75.75-.042.459-.292.709-.75.75h-.625l-1.75 7a1.99 1.99 0 0 1-.719 1.063c-.333.291-.74.437-1.218.437H8.061c-.479 0-.885-.146-1.218-.437a1.99 1.99 0 0 1-.719-1.063l-1.75-7H3.75c-.458-.041-.708-.291-.75-.75.042-.458.292-.708.75-.75h2.938l2.906-5.593c.25-.396.583-.5 1-.313zm7.5 7.406H5.937l1.657 6.625c.062.23.218.354.468.375h7.876a.538.538 0 0 0 .5-.375l1.656-6.625zM7.5 13.248c.042-.458.292-.708.75-.75.458.042.708.292.75.75-.042.459-.292.709-.75.75-.458-.041-.708-.291-.75-.75zm8.25-.75c.458.042.708.292.75.75-.042.459-.292.709-.75.75-.458-.041-.708-.291-.75-.75.042-.458.292-.708.75-.75z" fill="#2884E0"></path>
		</symbol>
	
		<symbol id="icon-achievement-social-guarantees" viewBox="0 0 24 24">
			<path d="M12.002 5.578l-5.72 2.438c-.187.104-.28.24-.28.406 0 .979.166 2.104.5 3.375.333 1.25.916 2.479 1.75 3.687.854 1.188 2.041 2.167 3.562 2.938.125.041.25.041.375 0 1.521-.771 2.709-1.75 3.563-2.938.833-1.208 1.416-2.437 1.75-3.687.333-1.271.5-2.396.5-3.375 0-.167-.094-.302-.282-.406l-5.718-2.438zm.406-1.437l5.906 2.5c.354.145.636.375.844.687a1.8 1.8 0 0 1 .344 1.094c.02 1.062-.157 2.312-.532 3.75-.375 1.437-1.052 2.833-2.03 4.187-.96 1.375-2.334 2.51-4.126 3.407-.541.25-1.083.25-1.625 0-1.792-.896-3.167-2.032-4.125-3.407-.979-1.354-1.656-2.75-2.031-4.187-.375-1.438-.552-2.688-.531-3.75a1.8 1.8 0 0 1 .343-1.094c.209-.312.49-.542.844-.687l5.906-2.5a.896.896 0 0 1 .407-.094c.146 0 .28.031.406.094z" fill="#2884E0"></path>
		</symbol>
	
		<symbol id="icon-arrow-button" viewBox="0 0 17 11">
			<path d="M16.238 6.122l-3.895 3.895A.88.88 0 0 1 11.1 8.773l2.434-2.407h-12.5a.866.866 0 0 1 0-1.732h12.5L11.1 2.227A.88.88 0 0 1 12.343.983l3.895 3.895a.9.9 0 0 1 0 1.244z" fill="#fff"></path>
		</symbol>
	
		<symbol id="icon-arrow-change" viewBox="0 0 16 16">
			<path d="M8.599 10.682a.87.87 0 0 1-.599.235.87.87 0 0 1-.599-.235L3.234 6.516a.87.87 0 0 1-.234-.6.87.87 0 0 1 .234-.598.87.87 0 0 1 .6-.235.87.87 0 0 1 .598.235L8 8.912l3.568-3.594a.87.87 0 0 1 .599-.235c.225 0 .425.079.599.235a.869.869 0 0 1 .234.599.869.869 0 0 1-.234.599l-4.167 4.166z"></path>
		</symbol>
	
		<symbol id="icon-arrow-next" viewBox="0 0 17 11">
			<path d="M16.738 6.122l-3.896 3.895a.88.88 0 0 1-1.244-1.244l2.435-2.407H1.532a.866.866 0 0 1 0-1.732h12.5l-2.434-2.407A.88.88 0 0 1 12.842.983l3.896 3.895a.9.9 0 0 1 0 1.244z" fill="#fff"></path>
		</symbol>
	
		<symbol id="icon-basked-card-favorite" viewBox="0 0 16 16">
			<path d="M7.687 3.386l.287.313.312-.313a3.798 3.798 0 0 1 1.51-.911 4.056 4.056 0 0 1 1.771-.13c.903.173 1.641.599 2.214 1.276.573.66.868 1.458.885 2.395v.157c-.017 1.128-.434 2.074-1.25 2.838L8.73 13.412a1.045 1.045 0 0 1-.73.287c-.277 0-.52-.096-.728-.287l-4.688-4.4c-.816-.765-1.233-1.71-1.25-2.84v-.156c.017-.937.313-1.736.885-2.395.573-.677 1.311-1.103 2.214-1.276a3.959 3.959 0 0 1 1.745.13 3.575 3.575 0 0 1 1.51.911c-.017 0-.017 0 0 0z" fill="#898A8C"></path>
		</symbol>
	
		<symbol id="icon-basket" viewBox="0 0 20 18">
			<path d="M.84.034h1.612c.817.047 1.4.42 1.75 1.121h14.395c.467.023.84.21 1.12.56.257.35.339.748.246 1.191l-1.436 5.359a2.455 2.455 0 0 1-.91 1.33c-.445.35-.958.526-1.542.526H5.99l.175 1.015c.117.42.397.642.84.666h10.087c.514.046.794.327.84.84-.046.514-.326.794-.84.84H7.004c-.63 0-1.167-.186-1.61-.56a2.538 2.538 0 0 1-.876-1.47L2.697 1.96c-.024-.164-.105-.246-.245-.246H.84C.327 1.67.047 1.39 0 .875.047.36.327.08.84.035zm3.748 2.802L5.674 8.44h10.401c.42-.024.689-.234.806-.63l1.366-4.974H4.587zm1.576 15.13c-.63-.024-1.12-.304-1.471-.84-.28-.561-.28-1.122 0-1.682.35-.537.84-.817 1.47-.84.631.023 1.122.303 1.472.84.28.56.28 1.12 0 1.681-.35.537-.84.817-1.471.84zm11.767-1.681c-.023.63-.303 1.12-.84 1.47-.56.28-1.12.28-1.681 0-.537-.35-.817-.84-.84-1.47.023-.63.303-1.121.84-1.471.56-.28 1.12-.28 1.68 0 .538.35.818.84.841 1.47z"></path>
		</symbol>
	
		<symbol id="icon-basket-del" viewBox="0 0 24 24">
			<path d="M9.914 6.422c.14-.266.367-.406.68-.422h2.812c.313.016.54.156.68.422l.164.328h2.25a.73.73 0 0 1 .54.21c.14.142.21.321.21.54a.73.73 0 0 1-.21.54.73.73 0 0 1-.54.21h-9a.73.73 0 0 1-.54-.21.73.73 0 0 1-.21-.54.73.73 0 0 1 .21-.54.73.73 0 0 1 .54-.21h2.25l.164-.328zM16.5 9l-.492 7.945a1.206 1.206 0 0 1-.352.75 1.1 1.1 0 0 1-.773.305H9.117a1.1 1.1 0 0 1-.773-.305 1.207 1.207 0 0 1-.352-.75L7.5 9h9z" fill="#898A8C"></path>
		</symbol>
	
		<symbol id="icon-basket-delivery-moscow" viewBox="0 0 18 18">
			<path d="M.818 2.455h10.637v2.454h1.969l.255.23 2.455 2.455.23.255v3.605h.818v1.637h-1.636c-.017.699-.256 1.278-.716 1.739-.46.46-1.04.698-1.739.715-.699-.017-1.278-.255-1.739-.716-.46-.46-.698-1.04-.716-1.738H7.364c-.017.699-.256 1.278-.716 1.739-.46.46-1.04.698-1.739.715-.699-.017-1.278-.255-1.738-.716-.46-.46-.7-1.04-.716-1.738H.818V2.455zm13.91 6.06l-1.97-1.97h-1.303V9h3.272v-.486zM6.136 13.09a1.274 1.274 0 0 0-.614-1.074 1.304 1.304 0 0 0-1.227 0 1.274 1.274 0 0 0-.614 1.074c.017.46.222.818.614 1.074.409.204.818.204 1.227 0 .392-.256.597-.614.614-1.074zm6.954 1.227c.46-.017.818-.221 1.074-.614.205-.409.205-.818 0-1.227a1.274 1.274 0 0 0-1.074-.613c-.46.017-.818.221-1.074.613a1.304 1.304 0 0 0 0 1.227c.256.393.614.597 1.074.614z" fill="#BBBDBF"></path>
		</symbol>
	
		<symbol id="icon-basket-delivery-picup" viewBox="0 0 18 18">
			<path d="M9 5.903A1.57 1.57 0 0 0 8.54 4.81a1.57 1.57 0 0 0-1.093-.461 1.57 1.57 0 0 0-1.093.461 1.57 1.57 0 0 0-.462 1.093c0 .13.016.251.049.364l-1.603-.194V6.05v-.146c.016-.874.315-1.611.898-2.21.6-.583 1.336-.883 2.21-.899.875.016 1.612.316 2.211.899.583.599.883 1.336.899 2.21V6l1.482-3.109 2.088.996-1.068 2.259L9 6.656l-.17-.024c.114-.227.17-.47.17-.729zm6.218 5.1v2.649L9 15.206l-6.218-1.554v-2.648l3.668 1.069.583.145.291-.51L9 8.94l1.676 2.77.292.51.583-.146 3.667-1.07zM2.782 6.657L9 7.433l6.218-.777 1.555 3.11-5.44 1.554L9 7.433 6.668 11.32l-5.44-1.555 1.554-3.109z" fill="#BBBDBF"></path>
		</symbol>
	
		<symbol id="icon-basket-delivery-post" viewBox="0 0 18 18">
			<path d="M4.909 3.273h3.273l-.819 3.272h-4.09l1.636-3.272zm5.727 3.272l-.818-3.272h3.273l1.636 3.272h-4.09zm-3.273.819v2.454h3.273V7.364h4.091v7.363H3.272V7.364h4.091z" fill="#BBBDBF"></path>
		</symbol>
	
		<symbol id="icon-burg-menu" viewBox="0 0 24 18">
			<path fill="#fff" d="M0 0h24v2H0zM0 8h24v2H0zM0 16h24v2H0z"></path>
		</symbol>
	
		<symbol id="icon-card-rating-star--full" viewBox="0 0 20 20">
			<path d="M10 2.392l2.225 5.349L18 8.204l-4.4 3.769 1.344 5.635L10 14.588l-4.944 3.02L6.4 11.973 2 8.203l5.775-.462L10 2.39z" fill="#FFBA33"></path>
		</symbol>
	
		<symbol id="icon-card-rating-star--half" viewBox="0 0 20 20">
			<path d="M10 2.392l2.225 5.349L18 8.204l-4.4 3.769 1.344 5.635L10 14.588l-4.944 3.02L6.4 11.973 2 8.203l5.775-.462L10 2.39z" fill="url(#a)"></path><defs><linearGradient id="a" x1="18" y1="10" x2="2" y2="10" gradientUnits="userSpaceOnUse"><stop offset=".39" stop-color="#BBBDBF"></stop><stop offset=".4" stop-color="#FFBA33"></stop></linearGradient></defs>
		</symbol>
	
		<symbol id="icon-category-filter-change" viewBox="0 0 16 16">
			<path d="M8.599 10.682a.87.87 0 0 1-.599.235.87.87 0 0 1-.599-.235L3.234 6.516a.87.87 0 0 1-.234-.6.87.87 0 0 1 .234-.598.87.87 0 0 1 .6-.235.87.87 0 0 1 .598.235L8 8.91l3.568-3.593a.87.87 0 0 1 .599-.235c.225 0 .425.078.599.235a.869.869 0 0 1 .234.599.869.869 0 0 1-.234.599l-4.167 4.166z"></path>
		</symbol>
	
		<symbol id="icon-close-panel" viewBox="0 0 16 16">
			<path d="M12.424 4.924L9.318 8l3.106 3.076c.176.195.264.42.264.674a.978.978 0 0 1-.264.674.978.978 0 0 1-.674.264.978.978 0 0 1-.674-.264L8 9.318l-3.076 3.106a.978.978 0 0 1-.674.264.978.978 0 0 1-.674-.264.978.978 0 0 1-.264-.674c0-.254.088-.479.264-.674L6.682 8 3.576 4.924a.978.978 0 0 1-.264-.674c0-.254.088-.479.264-.674a.978.978 0 0 1 .674-.264c.254 0 .479.088.674.264L8 6.682l3.076-3.106a.978.978 0 0 1 .674-.264c.254 0 .479.088.674.264.176.195.264.42.264.674a.978.978 0 0 1-.264.674z" fill="#212226"></path>
		</symbol>
	
		<symbol id="icon-close-search" viewBox="0 0 16 16">
			<path d="M12.424 4.924L9.318 8l3.106 3.076c.176.195.264.42.264.674a.978.978 0 0 1-.264.674.978.978 0 0 1-.674.264.978.978 0 0 1-.674-.264L8 9.318l-3.076 3.106a.978.978 0 0 1-.674.264.978.978 0 0 1-.674-.264.978.978 0 0 1-.264-.674c0-.254.088-.479.264-.674L6.682 8 3.576 4.924a.978.978 0 0 1-.264-.674c0-.254.088-.479.264-.674a.978.978 0 0 1 .674-.264c.254 0 .479.088.674.264L8 6.682l3.076-3.106a.978.978 0 0 1 .674-.264c.254 0 .479.088.674.264.176.195.264.42.264.674a.978.978 0 0 1-.264.674z" fill="#BBBDBF"></path>
		</symbol>
	
		<symbol id="icon-dewelopment" viewBox="0 0 52 12">
			<g clip-path="url(#a)" fill="#898A8C"><path d="M13.424 6.853V.752h2.191v6.025c0 1.415.823 2.388 2.39 2.388 1.567 0 2.373-.974 2.373-2.388V.752h2.207v6.086c0 2.526-1.492 4.245-4.58 4.245-3.09 0-4.58-1.735-4.58-4.23zM27.791 9.47l1.17-1.644a4.448 4.448 0 0 0 3.227 1.37c1.187 0 1.765-.548 1.765-1.127 0-1.795-5.843-.563-5.843-4.382C28.11 2 29.57.6 31.96.6c1.613 0 2.951.486 3.956 1.415l-1.203 1.582c-.82-.76-1.916-1.11-2.951-1.11-.928 0-1.445.41-1.445 1.02 0 1.612 5.827.532 5.827 4.32 0 1.857-1.324 3.257-4.062 3.257-1.947 0-3.347-.655-4.291-1.614zM41.212 5.792C41.212 2.71 43.467.5 46.551.5c3.098 0 5.353 2.209 5.353 5.292 0 3.083-2.255 5.292-5.353 5.292-3.084 0-5.339-2.209-5.339-5.292zm8.452 0c0-1.916-1.227-3.358-3.113-3.358-1.887 0-3.099 1.442-3.099 3.358 0 1.903 1.212 3.36 3.099 3.36 1.886 0 3.113-1.457 3.113-3.36zM5.935 7.035c1.095-.258 2.222-1.217 2.222-3.012 0-1.887-1.293-3.271-3.409-3.271H0v1.901h4.429c.867 0 1.521.517 1.521 1.37 0 .851-.655 1.37-1.521 1.37H0V10.9h2.16V7.295h1.584L5.737 10.9h2.48L5.936 7.035z"></path></g><defs><clipPath id="a"><path fill="#fff" transform="translate(0 .5)" d="M0 0h52v11H0z"></path></clipPath></defs>
		</symbol>
	
		<symbol id="icon-favorites" viewBox="0 0 20 18">
			<path d="M11.13 2.794c.57-.547 1.19-.916 1.86-1.126a5.08 5.08 0 0 1 2.196-.164c1.128.221 2.021.744 2.723 1.573l.008.01c.692.797 1.06 1.761 1.083 2.947v.217c-.024 1.421-.537 2.58-1.558 3.536h-.002l-7.026 6.598a.57.57 0 0 1-.414.163.57.57 0 0 1-.414-.163L2.559 9.788v-.001C1.535 8.83 1.023 7.672 1 6.25v-.217c.024-1.186.391-2.15 1.083-2.947l.009-.01c.701-.83 1.595-1.352 2.724-1.574a4.937 4.937 0 0 1 2.16.166c.691.21 1.3.573 1.833 1.103l.415.452.706.77.738-.739.462-.461z"></path>
		</symbol>
	
		<symbol id="icon-filter" viewBox="0 0 16 16">
			<path d="M2.094 3.285c.172-.344.453-.524.844-.54h10.124c.391.016.672.196.844.54.156.36.117.687-.117.984L9.5 9.52v2.977a.798.798 0 0 1-.422.68.733.733 0 0 1-.773-.07l-1.5-1.126a.734.734 0 0 1-.305-.61V9.52L2.21 4.27c-.233-.298-.272-.626-.116-.985z" fill="#2884E0"></path>
		</symbol>
	
		<symbol id="icon-form-check" viewBox="0 0 20 20">
			<path d="M15.737 6.133a.975.975 0 0 1 .263.672.975.975 0 0 1-.263.672l-6.39 6.39a.975.975 0 0 1-.672.263.975.975 0 0 1-.672-.263l-3.74-3.74A.975.975 0 0 1 4 9.455c0-.254.088-.478.263-.673a.975.975 0 0 1 .672-.263c.253 0 .477.088.672.263l3.068 3.098 5.718-5.747a.975.975 0 0 1 .672-.263c.253 0 .477.088.672.263z" fill="#2884E0"></path>
		</symbol>
	
		<symbol id="icon-form-edit" viewBox="0 0 16 17">
			<path d="M10.946 1.993c.366-.329.776-.493 1.233-.493.475 0 .886.164 1.232.493l1.096 1.096c.329.365.493.776.493 1.232 0 .475-.164.886-.493 1.233l-1.342 1.342-3.56-3.56 1.341-1.343zM9.002 3.938l3.56 3.56-6.409 6.41c-.292.273-.63.474-1.013.602l-3.287.959a.626.626 0 0 1-.657-.165.626.626 0 0 1-.165-.657l.959-3.287a2.33 2.33 0 0 1 .63-1.013l6.382-6.41z" fill="#BBBDBF"></path>
		</symbol>
	
		<symbol id="icon-form-file" viewBox="0 0 14 18">
			<path d="M6.156 10.195v3.586c.047.516.328.797.844.844.516-.047.797-.328.844-.844v-3.586l1.09 1.09c.398.328.796.328 1.195 0 .328-.398.328-.797 0-1.195L7.598 7.559c-.399-.329-.797-.329-1.196 0l-2.53 2.53c-.329.4-.329.798 0 1.196.398.328.796.328 1.194 0l1.09-1.09z" fill="#212226"></path><path fill-rule="evenodd" clip-rule="evenodd" d="M8.336 0H2.5C1.867.023 1.34.246.918.668.496 1.09.273 1.618.25 2.25v13.5c.023.633.246 1.16.668 1.582.422.422.95.645 1.582.668h9c.633-.023 1.16-.246 1.582-.668.422-.422.645-.95.668-1.582V5.45c0-.634-.223-1.173-.668-1.618L9.918.668C9.473.223 8.945 0 8.336 0zM2.5 16.313c-.352-.024-.54-.211-.563-.563V2.25c.024-.352.211-.54.563-.563h5.625V4.5c0 .328.105.598.316.809.211.21.48.316.809.316h2.813V15.75c-.024.352-.211.54-.563.563h-9z" fill="#212226"></path>
		</symbol>
	
		<symbol id="icon-help" viewBox="0 0 10 10">
			<path d="M5 10a5.119 5.119 0 0 1-2.5-.664A5.167 5.167 0 0 1 .664 7.5 5.063 5.063 0 0 1 0 5c0-.872.221-1.706.664-2.5A5.167 5.167 0 0 1 2.5.664 5.119 5.119 0 0 1 5 0a5.119 5.119 0 0 1 2.5.664A5.167 5.167 0 0 1 9.336 2.5C9.779 3.294 10 4.128 10 5c0 .872-.221 1.706-.664 2.5A5.167 5.167 0 0 1 7.5 9.336 5.119 5.119 0 0 1 5 10zM3.32 3.223v.039c-.078.273.013.468.274.586.273.078.475-.013.605-.274v-.039c.026-.065.078-.098.156-.098h1.133c.183.014.28.111.293.293a.264.264 0 0 1-.156.254l-.86.508a.445.445 0 0 0-.234.41v.254c.026.287.183.443.469.469.286-.026.443-.182.469-.469l.625-.351c.403-.248.612-.606.625-1.075-.013-.351-.13-.638-.352-.859a1.262 1.262 0 0 0-.879-.371H4.355a1.08 1.08 0 0 0-.644.195c-.182.13-.313.306-.39.528zm1.055 3.652c0 .182.059.332.176.45A.608.608 0 0 0 5 7.5a.608.608 0 0 0 .45-.176.608.608 0 0 0 .175-.449.608.608 0 0 0-.176-.45A.608.608 0 0 0 5 6.25a.608.608 0 0 0-.45.176.608.608 0 0 0-.175.449z" fill="#5C5F66"></path>
		</symbol>
	
		<symbol id="icon-lnk-beer" viewBox="0 0 21 21">
			<path d="M15.833 8.49h-.666V6.157a1 1 0 0 0-1-1h-.807a1.852 1.852 0 0 0-.867-1.067 2.09 2.09 0 0 0-1.193-.258 1.061 1.061 0 0 1-.96-.408 2.34 2.34 0 0 0-3.965.414A1.97 1.97 0 0 0 4.29 5.157H3.5a1 1 0 0 0-1 1v8.667a3.67 3.67 0 0 0 3.667 3.666H11.5a3.67 3.67 0 0 0 3.525-2.666h.808a2.667 2.667 0 0 0 2.667-2.667v-2a2.667 2.667 0 0 0-2.667-2.667zm-2.666 6.334A1.667 1.667 0 0 1 11.5 16.49H6.167A1.667 1.667 0 0 1 4.5 14.824V7.157h.333a1 1 0 0 1 1 1v3a1.333 1.333 0 0 0 2.667 0v-3a1 1 0 0 1 1-1h3.667v7.667zm3.333-1.667a.666.666 0 0 1-.667.667h-.666V10.49h.666a.667.667 0 0 1 .667.667v2z"></path>
		</symbol>
	
		<symbol id="icon-lnk-champagne" viewBox="0 0 21 21">
			<path clip-rule="evenodd" d="M5.698 10.488a4.81 4.81 0 0 0 3.835 4.705v1.37H7.944a.968.968 0 0 0 0 1.937h5.114a.968.968 0 0 0 0-1.936H11.47v-1.371c2.19-.45 3.836-2.397 3.833-4.764v-.014l-.534-5.872A2.238 2.238 0 0 0 12.53 2.5H8.472c-1.168 0-2.131.88-2.237 2.043l-.537 5.93v.015zm4.803 2.867c-1.58 0-2.86-1.282-2.87-2.795l.267-2.928h5.208l.263 2.87a2.871 2.871 0 0 1-2.868 2.853z"></path>
		</symbol>
	
		<symbol id="icon-lnk-cider" viewBox="0 0 21 21">
			<path clip-rule="evenodd" d="M14.728 8.426l-1.981-1.321V3.468a.968.968 0 0 0-.968-.968H9.222a.968.968 0 0 0-.968.968v3.637l-1.981 1.32a4.155 4.155 0 0 0-1.856 3.466v3.084A3.529 3.529 0 0 0 7.942 18.5h5.115a3.529 3.529 0 0 0 3.526-3.525V11.89a4.156 4.156 0 0 0-1.855-3.465zm-4.539-.803V5.714h.621v1.909a.97.97 0 0 0 .431.805l2.412 1.609c.621.414.992 1.106.992 1.854v3.148a1.592 1.592 0 0 1-1.588 1.525H7.942c-.875 0-1.589-.713-1.589-1.59v-2.227h5.609a.968.968 0 0 0 0-1.937h-5.33c.17-.306.413-.572.714-.773L9.76 8.428a.969.969 0 0 0 .43-.805z"></path>
		</symbol>
	
		<symbol id="icon-lnk-collection" viewBox="0 0 21 21">
			<path clip-rule="evenodd" d="M15.655 2.793l.22-.016v.002l.001.006.001.019a3.54 3.54 0 0 1 .004.32c-.005.21-.024.503-.08.834-.114.658-.38 1.492-1.009 2.12l-.003.004a3.8 3.8 0 0 1-.73.548 5.963 5.963 0 0 1 4.403 5.833c.068 4.146-4.196 7.216-7.962 5.597-3.765 1.62-8.03-1.451-7.962-5.596A5.927 5.927 0 0 1 8.34 6.437h.912a7.971 7.971 0 0 0-.831-2.64l-.102-.195L10.426 2.5l.103.197c.42.807.73 1.665.925 2.55a4.79 4.79 0 0 1 .904-1.58l.005-.005.006-.006c.629-.629 1.463-.895 2.12-1.008a5.757 5.757 0 0 1 1.155-.077h.02l.005.001h.001l-.015.221zm0 0l.015-.22.191.014.015.19-.221.016zM8.348 8.814a3.548 3.548 0 0 0-3.433 3.644v.01c-.05 2.66 2.772 4.512 5.006 3.235l.003-.002.576-.317.577.318c.481.27 1.023.41 1.575.41 1.141-.037 1.985-.503 2.546-1.173.565-.676.853-1.572.853-2.475s-.287-1.798-.852-2.474c-.561-.671-1.405-1.137-2.547-1.176H8.348z"></path>
		</symbol>
	
		<symbol id="icon-lnk-corporate" viewBox="0 0 21 21">
			<path d="M15.833 8.49h-.666V6.157a1 1 0 0 0-1-1h-.807a1.852 1.852 0 0 0-.867-1.067 2.09 2.09 0 0 0-1.193-.258 1.061 1.061 0 0 1-.96-.408 2.34 2.34 0 0 0-3.965.414A1.97 1.97 0 0 0 4.29 5.157H3.5a1 1 0 0 0-1 1v8.667a3.67 3.67 0 0 0 3.667 3.666H11.5a3.67 3.67 0 0 0 3.525-2.666h.808a2.667 2.667 0 0 0 2.667-2.667v-2a2.667 2.667 0 0 0-2.667-2.667zm-2.666 6.334A1.667 1.667 0 0 1 11.5 16.49H6.167A1.667 1.667 0 0 1 4.5 14.824V7.157h.333a1 1 0 0 1 1 1v3a1.333 1.333 0 1 0 2.667 0v-3a1 1 0 0 1 1-1h3.667v7.667zm3.333-1.667a.666.666 0 0 1-.667.667h-.666V10.49h.666a.667.667 0 0 1 .667.667v2z"></path>
		</symbol>
	
		<symbol id="icon-lnk-exclusive" viewBox="0 0 21 21">
			<path clip-rule="evenodd" d="M13.152 14.833l1.677-1.678c.33-.33.512-.77.512-1.238 0-.467-.183-.908-.512-1.237l-1.677-1.678a1.752 1.752 0 0 0-1.735-.439 1.695 1.695 0 0 0-1.553-1.019H7.34c-.934 0-1.693.76-1.693 1.694v2.522c0 .935.759 1.694 1.693 1.694h1.956l1.379 1.38c.342.341.79.511 1.238.511.448 0 .896-.171 1.238-.512zm-3.72-3.505H7.772V9.671h1.658v1.658zm2.481 1.737l1.146-1.146-1.146-1.147-.356.356v.633c0 .275-.066.535-.182.765l.538.539z"></path><path clip-rule="evenodd" d="M17.9 3.895l.014.017c.43.485.639 1.13.574 1.775l-.895 8.954a3.576 3.576 0 0 1-3.568 3.228h-7.11a3.571 3.571 0 0 1-3.57-3.252L2.51 5.67c-.06-.65.158-1.299.596-1.781v-.001a2.33 2.33 0 0 1 1.719-.758h11.35a2.33 2.33 0 0 1 1.724.764zM16.322 5.32a.192.192 0 0 0-.147-.064H4.825a.191.191 0 0 0-.147.064.19.19 0 0 0-.05.152l.835 8.946a1.45 1.45 0 0 0 1.452 1.324h7.11c.754 0 1.378-.564 1.453-1.314l.895-8.953-.05-.155z"></path>
		</symbol>
	
		<symbol id="icon-lnk-gift-baskets" viewBox="0 0 21 21">
			<path clip-rule="evenodd" d="M14.728 8.426l-1.981-1.321V3.468a.968.968 0 0 0-.968-.968H9.222a.968.968 0 0 0-.968.968v3.637l-1.981 1.32a4.155 4.155 0 0 0-1.856 3.466v3.084A3.529 3.529 0 0 0 7.942 18.5h5.115a3.529 3.529 0 0 0 3.526-3.525V11.89a4.156 4.156 0 0 0-1.855-3.465zm-4.539-.803V5.714h.621v1.909a.97.97 0 0 0 .431.805l2.412 1.609c.621.414.992 1.106.992 1.854v3.148a1.592 1.592 0 0 1-1.588 1.525H7.942c-.875 0-1.589-.713-1.589-1.59v-2.227h5.609a.968.968 0 0 0 0-1.937h-5.33c.17-.306.413-.572.714-.773L9.76 8.428a.969.969 0 0 0 .43-.805z"></path>
		</symbol>
	
		<symbol id="icon-lnk-heating-systems" viewBox="0 0 21 21">
			<path clip-rule="evenodd" d="M5.698 10.488a4.81 4.81 0 0 0 3.835 4.705v1.37H7.944a.968.968 0 0 0 0 1.937h5.114a.968.968 0 0 0 0-1.936H11.47v-1.371c2.19-.45 3.836-2.397 3.833-4.764v-.014l-.534-5.872A2.238 2.238 0 0 0 12.53 2.5H8.472c-1.168 0-2.131.88-2.237 2.043l-.537 5.93v.015zm4.803 2.867c-1.58 0-2.86-1.282-2.87-2.795l.267-2.928h5.208l.263 2.87a2.871 2.871 0 0 1-2.868 2.853z"></path>
		</symbol>
	
		<symbol id="icon-lnk-low-alcohol-drinks" viewBox="0 0 21 21">
			<path d="M18.14 4.015A2.912 2.912 0 0 0 15.585 2.5H5.415A2.912 2.912 0 0 0 2.86 4.015a2.849 2.849 0 0 0 .096 2.941A9.357 9.357 0 0 0 9.5 11.1v5.4h-2a1 1 0 0 0 0 2h6a1 1 0 0 0 0-2h-2v-5.4a9.356 9.356 0 0 0 6.544-4.145 2.848 2.848 0 0 0 .096-2.94zM10.5 9.167a7.38 7.38 0 0 1-5.878-3.334h11.756A7.38 7.38 0 0 1 10.5 9.167z"></path>
		</symbol>
	
		<symbol id="icon-lnk-products" viewBox="0 0 21 21">
			<path clip-rule="evenodd" d="M15.655 2.793l.22-.016v.002l.001.006.001.019a3.54 3.54 0 0 1 .004.32c-.005.21-.024.503-.08.834-.114.658-.38 1.492-1.009 2.12l-.003.004a3.8 3.8 0 0 1-.73.548 5.963 5.963 0 0 1 4.403 5.833c.068 4.146-4.196 7.216-7.962 5.597-3.765 1.62-8.03-1.451-7.962-5.596A5.927 5.927 0 0 1 8.34 6.437h.912a7.971 7.971 0 0 0-.831-2.64l-.102-.195L10.426 2.5l.103.197c.42.807.73 1.665.925 2.55a4.79 4.79 0 0 1 .904-1.58l.005-.005.006-.006c.629-.629 1.463-.895 2.12-1.008a5.757 5.757 0 0 1 1.155-.077h.02l.005.001h.001l-.015.221zm0 0l.015-.22.191.014.015.19-.221.016zM8.348 8.814a3.548 3.548 0 0 0-3.433 3.644v.01c-.05 2.66 2.772 4.512 5.006 3.235l.003-.002.576-.317.577.318c.481.27 1.023.41 1.575.41 1.141-.037 1.985-.503 2.546-1.173.565-.676.853-1.572.853-2.475s-.287-1.798-.852-2.474c-.561-.671-1.405-1.137-2.547-1.176H8.348z"></path>
		</symbol>
	
		<symbol id="icon-lnk-sale" viewBox="0 0 21 21">
			<path d="M10.5 18.5a3.862 3.862 0 0 1-2.813-1.214 3.867 3.867 0 0 1-3.979-3.978c-1.602-1.434-1.602-4.194 0-5.627a3.867 3.867 0 0 1 1.13-2.848 3.825 3.825 0 0 1 2.849-1.131c1.433-1.603 4.193-1.603 5.626 0a3.867 3.867 0 0 1 3.979 3.978c1.602 1.434 1.602 4.193 0 5.627a3.868 3.868 0 0 1-3.979 3.979A3.861 3.861 0 0 1 10.5 18.5zm-2.377-3.267a1 1 0 0 1 .83.442c.688 1.086 2.407 1.086 3.095 0a.999.999 0 0 1 1.02-.423 1.863 1.863 0 0 0 1.678-.512 1.87 1.87 0 0 0 .512-1.678 1 1 0 0 1 .423-1.02c1.086-.688 1.086-2.408 0-3.096a1 1 0 0 1-.423-1.02 1.866 1.866 0 0 0-2.19-2.19.998.998 0 0 1-1.02-.422c-.688-1.086-2.407-1.086-3.095 0a.996.996 0 0 1-1.02.423 1.866 1.866 0 0 0-2.19 2.19 1 1 0 0 1-.423 1.02c-1.087.687-1.087 2.407 0 3.095a1 1 0 0 1 .423 1.02 1.866 1.866 0 0 0 2.19 2.19.98.98 0 0 1 .19-.019zm.042-7.407c-1.316.022-1.315 1.979 0 2.001 1.316-.023 1.315-1.98 0-2.001zm4.67 3.335c-1.316.023-1.315 1.98 0 2.002 1.316-.023 1.315-1.98 0-2.002zm-2.837 1.89l2.669-4.003a1 1 0 1 0-1.665-1.11L8.333 11.94a1 1 0 1 0 1.665 1.11z"></path>
		</symbol>
	
		<symbol id="icon-lnk-soft-drink" viewBox="0 0 21 21">
			<path d="M15.833 8.49h-.666V6.157a1 1 0 0 0-1-1h-.807a1.852 1.852 0 0 0-.867-1.067 2.09 2.09 0 0 0-1.193-.258 1.061 1.061 0 0 1-.96-.408 2.34 2.34 0 0 0-3.965.414A1.97 1.97 0 0 0 4.29 5.157H3.5a1 1 0 0 0-1 1v8.667a3.67 3.67 0 0 0 3.667 3.666H11.5a3.671 3.671 0 0 0 3.525-2.666h.808a2.667 2.667 0 0 0 2.667-2.667v-2a2.667 2.667 0 0 0-2.667-2.667zm-2.666 6.334A1.666 1.666 0 0 1 11.5 16.49H6.167A1.667 1.667 0 0 1 4.5 14.824V7.157h.333a1 1 0 0 1 1 1v3a1.333 1.333 0 0 0 2.667 0v-3a1 1 0 0 1 1-1h3.667v7.667zm3.333-1.667a.666.666 0 0 1-.667.667h-.666V10.49h.666a.666.666 0 0 1 .667.667v2z"></path>
		</symbol>
	
		<symbol id="icon-lnk-strong-alcohol" viewBox="0 0 21 21">
			<path clip-rule="evenodd" d="M13.152 14.833l1.677-1.678c.33-.33.512-.77.512-1.238a1.74 1.74 0 0 0-.512-1.237l-1.677-1.678a1.752 1.752 0 0 0-1.735-.439 1.695 1.695 0 0 0-1.553-1.019H7.34c-.934 0-1.693.76-1.693 1.694v2.522c0 .935.759 1.694 1.693 1.694h1.956l1.379 1.38c.342.341.79.511 1.238.511.448 0 .896-.171 1.238-.512zm-3.72-3.505H7.772V9.671h1.658v1.658zm2.481 1.737l1.146-1.146-1.146-1.147-.356.356v.633c0 .275-.066.535-.182.765l.538.539z"></path><path clip-rule="evenodd" d="M17.9 3.895l.014.017c.43.485.639 1.13.574 1.775l-.895 8.954a3.576 3.576 0 0 1-3.568 3.228h-7.11a3.571 3.571 0 0 1-3.57-3.252L2.51 5.67c-.06-.65.158-1.299.596-1.781v-.001a2.33 2.33 0 0 1 1.719-.758h11.35a2.33 2.33 0 0 1 1.724.764zM16.322 5.32a.192.192 0 0 0-.147-.065H4.825a.191.191 0 0 0-.147.065.19.19 0 0 0-.05.152l.835 8.946a1.45 1.45 0 0 0 1.452 1.324h7.11c.754 0 1.378-.564 1.453-1.314l.895-8.953-.05-.155z"></path>
		</symbol>
	
		<symbol id="icon-lnk-wine" viewBox="0 0 21 21">
			<path d="M18.14 4.015A2.912 2.912 0 0 0 15.585 2.5H5.415A2.912 2.912 0 0 0 2.86 4.015a2.849 2.849 0 0 0 .096 2.941A9.357 9.357 0 0 0 9.5 11.1v5.4h-2a1 1 0 0 0 0 2h6a1 1 0 0 0 0-2h-2v-5.4a9.356 9.356 0 0 0 6.544-4.145 2.848 2.848 0 0 0 .096-2.94zM10.5 9.167a7.38 7.38 0 0 1-5.878-3.334h11.756A7.38 7.38 0 0 1 10.5 9.167z"></path>
		</symbol>
	
		<symbol id="icon-load" viewBox="0 0 16 16">
			<path d="M10.5 7c-.333-.02-.563-.177-.688-.469-.124-.291-.072-.562.157-.812l1.281-1.282C10.23 3.48 9.052 3 7.719 3c-1.313 0-2.48.49-3.5 1.469C3.239 5.489 2.75 6.667 2.75 8c0 1.333.49 2.51 1.469 3.531C5.239 12.511 6.417 13 7.75 13c1.333 0 2.51-.49 3.531-1.469.209-.187.448-.281.719-.281.27 0 .5.094.688.281a.988.988 0 0 1 .312.719c0 .27-.104.5-.313.688-.916.916-1.968 1.53-3.156 1.843a7.36 7.36 0 0 1-3.562 0c-1.188-.312-2.24-.927-3.157-1.844-.916-.916-1.53-1.968-1.843-3.156a7.362 7.362 0 0 1 0-3.562c.312-1.188.927-2.24 1.844-3.157.916-.916 1.968-1.53 3.156-1.843a7.235 7.235 0 0 1 3.531 0c1.188.291 2.24.896 3.156 1.812L13.97 1.72c.25-.23.52-.282.812-.157.292.125.448.355.469.688v4c-.042.458-.292.708-.75.75h-4z" fill="#212226"></path>
		</symbol>
	
		<symbol id="icon-menu-back" viewBox="0 0 16 17">
			<path d="M5.318 9.099a.87.87 0 0 1-.235-.599.87.87 0 0 1 .235-.599l4.166-4.167a.87.87 0 0 1 .6-.234.87.87 0 0 1 .598.234.87.87 0 0 1 .235.6.87.87 0 0 1-.235.598L7.09 8.5l3.593 3.568a.87.87 0 0 1 .235.599.87.87 0 0 1-.235.599.869.869 0 0 1-.599.234.869.869 0 0 1-.599-.234L5.318 9.099z" fill="#212226"></path>
		</symbol>
	
		<symbol id="icon-menu-close" viewBox="0 0 20 20">
			<path fill="#fff" d="M2.43 16.293L16.57 2.15l1.414 1.414L3.843 17.707z"></path><path fill="#fff" d="M3.429 2.293L17.57 16.435l-1.414 1.414L2.015 3.707z"></path>
		</symbol>
	
		<symbol id="icon-menu-next" viewBox="0 0 16 17">
			<path d="M10.682 7.901a.87.87 0 0 1 .235.599.87.87 0 0 1-.235.599l-4.166 4.167a.869.869 0 0 1-.6.234.869.869 0 0 1-.598-.234.869.869 0 0 1-.235-.6.87.87 0 0 1 .235-.598L8.91 8.5 5.318 4.932a.87.87 0 0 1-.235-.599.87.87 0 0 1 .235-.599.87.87 0 0 1 .599-.234.87.87 0 0 1 .599.234l4.166 4.167z" fill="#212226"></path>
		</symbol>
	
		<symbol id="icon-menu-open" viewBox="0 0 20 14">
			<path fill="#fff" d="M0 0h20v2H0zM0 6h20v2H0zM0 12h20v2H0z"></path>
		</symbol>
	
		<symbol id="icon-minus" viewBox="0 0 16 16">
			<path d="M2 8a.9.9 0 0 1 .9-.9h10.2a.9.9 0 1 1 0 1.8H2.9A.9.9 0 0 1 2 8z" fill="#212226"></path>
		</symbol>
	
		<symbol id="icon-place" viewBox="0 0 14 20">
			<path d="M7 0C3.502 0 .333 2.836.333 6.335.333 11.537 5.648 12.088 7 20c1.353-7.912 6.667-8.463 6.667-13.665C13.667 2.835 10.499 0 7 0zm0 9.167a2.5 2.5 0 1 1 0-5 2.5 2.5 0 0 1 0 5z" fill="#fff"></path>
		</symbol>
	
		<symbol id="icon-plus" viewBox="0 0 16 16">
			<path fill-rule="evenodd" clip-rule="evenodd" d="M8.9 2.9a.9.9 0 1 0-1.8 0v4.2H2.9a.9.9 0 1 0 0 1.8h4.2v4.2a.9.9 0 1 0 1.8 0V8.9h4.2a.9.9 0 1 0 0-1.8H8.9V2.9z" fill="#212226"></path>
		</symbol>
	
		<symbol id="icon-product-buy" viewBox="0 0 20 18">
			<path d="M.84.034h1.612c.817.047 1.4.42 1.75 1.121h14.395c.467.023.84.21 1.12.56.257.35.339.748.246 1.191l-1.436 5.359a2.455 2.455 0 0 1-.91 1.33c-.445.35-.958.526-1.542.526H5.99l.175 1.015c.117.42.397.642.84.666h10.087c.514.046.794.327.84.84-.046.514-.326.794-.84.84H7.004c-.63 0-1.167-.186-1.61-.56a2.538 2.538 0 0 1-.876-1.47L2.697 1.96c-.024-.164-.105-.246-.245-.246H.84C.327 1.67.047 1.388 0 .875.047.36.327.08.84.035zm3.748 2.802L5.674 8.44h10.401c.42-.024.689-.234.806-.63l1.366-4.974H4.587zm1.576 15.13c-.63-.024-1.12-.304-1.471-.84-.28-.561-.28-1.122 0-1.682.35-.537.84-.817 1.47-.84.631.023 1.122.303 1.472.84.28.56.28 1.12 0 1.681-.35.537-.84.817-1.471.84zm11.767-1.681c-.023.63-.303 1.12-.84 1.47-.56.28-1.12.28-1.681 0-.537-.35-.817-.84-.84-1.47.023-.63.303-1.121.84-1.471.56-.28 1.12-.28 1.68 0 .538.35.818.84.841 1.47z" fill="#fff"></path>
		</symbol>
	
		<symbol id="icon-product-compare" viewBox="0 0 24 24">
			<path d="M2.938 3.25c.572.052.885.365.937.938v13.75c.052.572.365.885.938.937h16.25c.572.052.885.365.937.938-.052.572-.365.885-.938.937H4.813c-.807-.026-1.47-.3-1.992-.82-.52-.521-.794-1.185-.82-1.992V4.188c.052-.573.365-.886.938-.938zm5.624 7.5c.573.052.886.365.938.938v3.124c-.052.573-.365.886-.938.938-.572-.052-.885-.365-.937-.938v-3.124c.052-.573.365-.886.938-.938zm4.688-2.813v6.875c-.052.573-.365.886-.938.938-.572-.052-.885-.365-.937-.938V7.939c.052-.573.365-.886.938-.938.572.052.885.365.937.938zM16.063 9.5c.572.052.885.365.937.938v4.374c-.052.573-.365.886-.938.938-.572-.052-.885-.365-.937-.938v-4.374c.052-.573.365-.886.938-.938zm4.687-4.063v9.375c-.052.573-.365.886-.938.938-.572-.052-.885-.365-.937-.938V5.438c.052-.573.365-.886.938-.938.572.052.885.365.937.938z" fill="#898A8C"></path>
		</symbol>
	
		<symbol id="icon-product-favorite" viewBox="0 0 24 24">
			<path d="M11.531 5.08l.43.468.469-.469c.677-.65 1.432-1.106 2.265-1.367a6.084 6.084 0 0 1 2.657-.195c1.354.26 2.46.898 3.32 1.914.86.99 1.302 2.187 1.328 3.594v.234c-.026 1.693-.651 3.112-1.875 4.258l-7.031 6.601c-.313.287-.677.43-1.094.43-.417 0-.781-.143-1.094-.43l-7.031-6.601C2.651 12.37 2.026 10.952 2 9.259v-.234c.026-1.407.469-2.604 1.328-3.594.86-1.016 1.966-1.654 3.32-1.914a5.938 5.938 0 0 1 2.618.195c.859.26 1.614.716 2.265 1.367-.026 0-.026 0 0 0zm.43 3.124l-1.758-1.836c-.911-.833-1.992-1.171-3.242-1.015-.912.182-1.654.612-2.227 1.289-.546.677-.833 1.471-.859 2.383v.234c.026 1.146.443 2.11 1.25 2.89L12 18.557l6.875-6.406c.807-.782 1.224-1.745 1.25-2.89v-.235c-.026-.912-.326-1.706-.898-2.383-.547-.677-1.276-1.107-2.188-1.29-1.25-.155-2.33.183-3.242 1.016L11.96 8.204z" fill="#898A8C"></path>
		</symbol>
	
		<symbol id="icon-product-star" viewBox="0 0 20 20">
			<path d="M10 2.392l2.225 5.349L18 8.204l-4.4 3.769 1.344 5.635L10 14.588l-4.944 3.02L6.4 11.973 2 8.203l5.775-.462L10 2.39z" fill="#FFBA33"></path>
		</symbol>
	
		<symbol id="icon-rating-star" viewBox="0 0 16 16">
			<path d="M8 .392l2.225 5.349L16 6.204l-4.4 3.769 1.344 5.635L8 12.588l-4.944 3.02L4.4 9.973 0 6.203l5.775-.462L8 .391z"></path>
		</symbol>
	
		<symbol id="icon-readmore" viewBox="0 0 17 10">
			<path d="M16.74 5.622l-3.896 3.895A.88.88 0 0 1 11.6 8.273l2.435-2.407H1.534a.866.866 0 0 1 0-1.732h12.5L11.6 1.727A.88.88 0 0 1 12.844.483l3.896 3.895a.9.9 0 0 1 0 1.244z"></path>
		</symbol>
	
		<symbol id="icon-reset" viewBox="0 0 10 10">
			<path d="M8.909 2.423L6.303 5l2.606 2.577.636.666-1.302 1.302-.666-.637L5 6.303 2.423 8.908l-.666.637L.455 8.243l.637-.666L3.697 5 1.092 2.423l-.637-.666L1.757.455l.666.636L5 3.697l2.577-2.606.666-.636 1.303 1.302-.637.666z"></path>
		</symbol>
	
		<symbol id="icon-reviews-comment" viewBox="0 0 16 17">
			<path d="M15.5 8.031a5.285 5.285 0 0 1-1.025 3.076c-.665.918-1.563 1.65-2.696 2.198-1.113.527-2.373.8-3.779.82-1.094 0-2.11-.176-3.047-.527-.371.273-.898.576-1.582.908a6.558 6.558 0 0 1-2.402.556c-.196 0-.342-.097-.44-.292a.467.467 0 0 1 .117-.498v-.03l.03-.03c.039-.038.088-.097.146-.175.137-.137.283-.342.44-.615.332-.508.547-1.123.644-1.846C.988 10.56.52 9.38.5 8.031a5.286 5.286 0 0 1 1.025-3.076c.664-.918 1.563-1.65 2.696-2.197C5.334 2.23 6.594 1.957 8 1.938c1.406.019 2.666.292 3.78.82 1.132.547 2.03 1.28 2.695 2.197A5.286 5.286 0 0 1 15.5 8.031z" fill="#BBBDBF"></path>
		</symbol>
	
		<symbol id="icon-reviews-minus" viewBox="0 0 16 17">
			<path d="M2 8.5a.9.9 0 0 1 .9-.9h10.2a.9.9 0 1 1 0 1.8H2.9a.9.9 0 0 1-.9-.9z" fill="#E51818"></path>
		</symbol>
	
		<symbol id="icon-reviews-plus" viewBox="0 0 16 17">
			<path fill-rule="evenodd" clip-rule="evenodd" d="M8.9 3.4a.9.9 0 1 0-1.8 0v4.2H2.9a.9.9 0 1 0 0 1.8h4.2v4.2a.9.9 0 1 0 1.8 0V9.4h4.2a.9.9 0 1 0 0-1.8H8.9V3.4z" fill="#1BB31B"></path>
		</symbol>
	
		<symbol id="icon-reviews-star" viewBox="0 0 20 21">
			<path d="M10 2.892l2.225 5.349L18 8.704l-4.4 3.769 1.344 5.635L10 15.088l-4.944 3.02L6.4 12.473 2 8.703l5.775-.462L10 2.891z" fill="#BBBDBF"></path>
		</symbol>
	
		<symbol id="icon-reviews-star--full" viewBox="0 0 20 21">
			<path d="M10 2.892l2.225 5.349L18 8.704l-4.4 3.769 1.344 5.635L10 15.088l-4.944 3.02L6.4 12.473 2 8.703l5.775-.462L10 2.891z" fill="#FFBA33"></path>
		</symbol>
	
		<symbol id="icon-reviews-star-big--full" viewBox="0 0 30 30">
			<path d="M15 3.587l3.337 8.024 8.663.695-6.6 5.653 2.016 8.454L15 21.883l-7.416 4.53L9.6 17.959 3 12.306l8.663-.695L15 3.587z" fill="#FFBA33"></path>
		</symbol>
	
		<symbol id="icon-search" viewBox="0 0 16 16">
			<path d="M15.936 14.43L11.8 10.295a6.454 6.454 0 0 0 1.238-3.807A6.494 6.494 0 0 0 6.55 0 6.494 6.494 0 0 0 .064 6.487a6.494 6.494 0 0 0 6.486 6.486 6.452 6.452 0 0 0 3.658-1.132L14.367 16l1.57-1.57zM1.966 6.488a4.59 4.59 0 0 1 4.585-4.585 4.59 4.59 0 0 1 4.585 4.585A4.59 4.59 0 0 1 6.55 11.07a4.59 4.59 0 0 1-4.585-4.584z"></path>
		</symbol>
	
		<symbol id="icon-select" viewBox="0 0 16 17">
			<path d="M8.599 11.182a.87.87 0 0 1-.599.235.87.87 0 0 1-.599-.235L3.234 7.016a.87.87 0 0 1-.234-.6.87.87 0 0 1 .234-.598.87.87 0 0 1 .6-.235.87.87 0 0 1 .598.235L8 9.41l3.568-3.593a.87.87 0 0 1 .599-.235c.225 0 .425.078.599.235a.869.869 0 0 1 .234.599.869.869 0 0 1-.234.599l-4.167 4.166z"></path>
		</symbol>
	
		<symbol id="icon-selected-stores" viewBox="0 0 16 17">
			<g clip-path="url(#a)"><path d="M2 2c.02-.417.167-.77.438-1.063A1.63 1.63 0 0 1 3.5.5h9c.417.02.77.167 1.063.438.27.291.416.645.437 1.062v13.75c-.042.458-.292.708-.75.75a.77.77 0 0 1-.438-.125L8 13l-4.813 3.375a.77.77 0 0 1-.437.125c-.458-.042-.708-.292-.75-.75V2z" fill="#E51818"></path></g><defs><clipPath id="a"><path fill="#fff" transform="translate(0 .5)" d="M0 0h16v16H0z"></path></clipPath></defs>
		</symbol>
	
		<symbol id="icon-shops-selected" viewBox="0 0 12 17">
			<path d="M6.574 12.181L6 11.78l-.574.402L1 15.285V2.03a.629.629 0 0 1 .146-.383.629.629 0 0 1 .383-.146h8.942a.629.629 0 0 1 .383.146c.084.1.134.216.146.383v13.256l-4.426-3.104z"></path>
		</symbol>
	
		<symbol id="icon-slider-arrow-next" viewBox="0 0 16 16">
			<path d="M8.599 10.682a.869.869 0 0 1-.599.235.869.869 0 0 1-.599-.235L3.234 6.516a.87.87 0 0 1-.234-.6.87.87 0 0 1 .234-.598.87.87 0 0 1 .6-.235.87.87 0 0 1 .598.235L8 8.91l3.568-3.593a.87.87 0 0 1 .599-.235c.225 0 .425.078.599.235a.869.869 0 0 1 .234.599.869.869 0 0 1-.234.599l-4.167 4.166z" fill="#212226"></path>
		</symbol>
	
		<symbol id="icon-slider-arrow-prev" viewBox="0 0 16 16">
			<path d="M7.401 5.318A.87.87 0 0 1 8 5.083a.87.87 0 0 1 .599.235l4.167 4.166a.869.869 0 0 1 .234.6.869.869 0 0 1-.234.598.869.869 0 0 1-.6.235.869.869 0 0 1-.598-.235L8 7.09l-3.568 3.593a.869.869 0 0 1-.599.235.869.869 0 0 1-.599-.235.87.87 0 0 1-.234-.599.87.87 0 0 1 .234-.599l4.167-4.166z" fill="#898A8C"></path>
		</symbol>
	
		<symbol id="icon-slider-next" viewBox="0 0 24 24">
			<path d="M19.738 12.622l-3.896 3.895a.88.88 0 0 1-1.244-1.244l2.435-2.407H4.532a.866.866 0 1 1 0-1.732h12.5l-2.434-2.407a.88.88 0 0 1 1.244-1.244l3.896 3.895a.9.9 0 0 1 0 1.244z"></path>
		</symbol>
	
		<symbol id="icon-slider-prev" viewBox="0 0 24 24">
			<path d="M4.262 11.378l3.896-3.895a.88.88 0 0 1 1.244 1.244l-2.435 2.407h12.501a.866.866 0 1 1 0 1.732h-12.5l2.434 2.407a.88.88 0 0 1-1.244 1.244l-3.896-3.895a.9.9 0 0 1 0-1.244z"></path>
		</symbol>
	
		<symbol id="icon-social-in" viewBox="0 0 14 14">
			<path d="M7 1.262c1.869 0 2.09.007 2.83.04 1.896.087 2.782.987 2.869 2.87.033.738.04.96.04 2.829 0 1.87-.007 2.09-.04 2.828-.087 1.881-.971 2.783-2.87 2.87-.738.033-.959.04-2.829.04-1.869 0-2.09-.007-2.829-.04-1.901-.087-2.783-.992-2.869-2.87-.034-.738-.04-.96-.04-2.829 0-1.869.007-2.09.04-2.829.087-1.882.97-2.783 2.87-2.869.738-.033.959-.04 2.828-.04zM7 0C5.099 0 4.86.008 4.114.042 1.572.159.16 1.569.043 4.114.008 4.86 0 5.099 0 7c0 1.901.008 2.14.042 2.886.117 2.543 1.527 3.955 4.072 4.072.747.034.985.042 2.886.042 1.901 0 2.14-.008 2.886-.042 2.54-.117 3.957-1.527 4.071-4.072C13.992 9.14 14 8.901 14 7c0-1.901-.008-2.14-.042-2.886C13.844 1.574 12.431.16 9.887.043 9.14.008 8.9 0 7 0zm0 3.405a3.595 3.595 0 1 0 0 7.19 3.595 3.595 0 0 0 0-7.19zm0 5.928a2.333 2.333 0 1 1 0-4.666 2.333 2.333 0 0 1 0 4.666zm3.737-6.91a.84.84 0 1 0 0 1.681.84.84 0 0 0 0-1.68z" fill="#BBBDBF"></path>
		</symbol>
	
		<symbol id="icon-social-vk" viewBox="0 0 14 10">
			<path d="M7.678 9.08c.355 0 .5-.237.496-.534-.018-1.118.416-1.72 1.2-.936.869.868 1.049 1.47 2.103 1.47h1.866c.472 0 .657-.152.657-.39 0-.503-.829-1.392-1.531-2.044-.984-.913-1.03-.934-.183-2.033 1.05-1.365 2.425-3.113 1.21-3.113h-2.323c-.45 0-.483.254-.643.632-.58 1.369-1.684 3.142-2.102 2.87C7.99 4.72 8.19 3.6 8.223 1.935c.01-.44.007-.741-.665-.898a4.707 4.707 0 0 0-1.055-.12c-1.326 0-2.24.557-1.721.653.916.171.828 2.154.615 3.01C5.025 6.07 3.626 3.4 3.043 2.07c-.14-.32-.184-.569-.685-.569H.459C.172 1.5 0 1.593 0 1.801c0 .351 1.727 3.92 3.375 5.699 1.608 1.735 3.197 1.58 4.303 1.58z" fill="#BBBDBF"></path>
		</symbol>
	
		<symbol id="icon-social-yo" viewBox="0 0 14 12">
			<path d="M11.442.857C9.34.714 4.657.714 2.558.857.285 1.013.017 2.386 0 6c.017 3.608.282 4.987 2.558 5.143 2.1.143 6.782.143 8.884 0C13.715 10.988 13.983 9.614 14 6c-.017-3.608-.282-4.987-2.558-5.143zM5.25 8.333V3.667l4.667 2.329L5.25 8.333z" fill="#BBBDBF"></path>
		</symbol>
	
		<symbol id="icon-user" viewBox="0 0 18 20">
			<path d="M12.125 5c-.026-1.172-.547-2.07-1.563-2.695-1.041-.573-2.083-.573-3.124 0C6.421 2.93 5.9 3.828 5.875 5c.026 1.172.547 2.07 1.563 2.695 1.041.573 2.083.573 3.125 0C11.578 7.07 12.098 6.172 12.124 5zM4 5c0-.911.221-1.745.664-2.5A5.167 5.167 0 0 1 6.5.664 4.991 4.991 0 0 1 9 0c.885 0 1.719.221 2.5.664A5.167 5.167 0 0 1 13.336 2.5c.443.755.664 1.589.664 2.5s-.221 1.745-.664 2.5A5.167 5.167 0 0 1 11.5 9.336 4.991 4.991 0 0 1 9 10a4.991 4.991 0 0 1-2.5-.664A5.167 5.167 0 0 1 4.664 7.5 4.853 4.853 0 0 1 4 5zM2.164 18.125h13.672c-.208-1.276-.768-2.318-1.68-3.125-.937-.807-2.057-1.224-3.36-1.25H7.204c-1.302.026-2.409.443-3.32 1.25-.938.807-1.51 1.849-1.719 3.125zm-1.914.703c.052-1.953.73-3.594 2.031-4.922 1.328-1.302 2.969-1.979 4.922-2.031h3.594c1.953.052 3.594.73 4.922 2.031 1.302 1.328 1.979 2.969 2.031 4.922 0 .339-.117.612-.352.82-.208.235-.481.352-.82.352H1.422c-.339 0-.612-.117-.82-.352-.235-.208-.352-.481-.352-.82z"></path>
		</symbol>
	
</svg>
