<svg xmlns="http://www.w3.org/2000/svg" xmlns:xlink="http://www.w3.org/1999/xlink" width="0" height="0" style="position:absolute">
	
		<symbol id="icon-achievement-business-processes" viewBox="0 0 24 24">
			<path d="M9.5 6.25V7.5h5V6.25c-.02-.146-.104-.23-.25-.25h-4.5c-.146.02-.23.104-.25.25zM8 7.5V6.25c.02-.5.188-.917.5-1.25.333-.313.75-.48 1.25-.5h4.5c.5.02.917.188 1.25.5.313.333.48.75.5 1.25V7.5h2c.563.02 1.031.219 1.406.594s.573.844.594 1.406v8c-.02.563-.219 1.031-.594 1.406s-.843.573-1.406.594H6c-.563-.02-1.031-.219-1.406-.594S4.02 18.063 4 17.5v-8c.02-.563.219-1.031.594-1.406S5.437 7.52 6 7.5h2zM5.5 14v3.5c.02.313.188.48.5.5h12c.313-.02.48-.188.5-.5V14H14v.5a.974.974 0 0 1-.281.719.974.974 0 0 1-.719.281h-2a.974.974 0 0 1-.719-.281A.974.974 0 0 1 10 14.5V14H5.5zm13-1.5v-3c-.02-.313-.188-.48-.5-.5H6c-.313.02-.48.188-.5.5v3h13z" fill="#2884E0"></path>
		</symbol>
	
		<symbol id="icon-achievement-friendly-atmosphere" viewBox="0 0 24 24">
			<path d="M6.5 9c-.938-.02-1.656-.438-2.156-1.25-.459-.833-.459-1.667 0-2.5.5-.813 1.218-1.23 2.156-1.25.938.02 1.656.438 2.156 1.25.459.833.459 1.667 0 2.5-.5.813-1.219 1.23-2.156 1.25zM18 9c-.938-.02-1.656-.438-2.156-1.25-.459-.833-.459-1.667 0-2.5.5-.813 1.219-1.23 2.156-1.25.938.02 1.656.438 2.156 1.25.459.833.459 1.667 0 2.5-.5.813-1.218 1.23-2.156 1.25zM2 13.344c.02-.959.344-1.75.969-2.375S4.385 10.02 5.344 10h1.312c.5 0 .969.104 1.407.313C8.02 10.541 8 10.77 8 11c.042 1.23.49 2.23 1.344 3H2.656c-.396-.042-.614-.26-.656-.656zM14.656 14c.854-.77 1.302-1.77 1.344-3 0-.23-.02-.458-.063-.688A3.23 3.23 0 0 1 17.345 10h1.312c.959.02 1.75.344 2.375.969s.948 1.416.969 2.375c-.042.396-.26.614-.656.656h-6.688zM12 9.5c-.563.02-1 .27-1.313.75-.25.5-.25 1 0 1.5.313.48.75.73 1.313.75.563-.02 1-.27 1.313-.75.25-.5.25-1 0-1.5-.313-.48-.75-.73-1.313-.75zm0 4.5a2.896 2.896 0 0 1-1.5-.406A3.007 3.007 0 0 1 9 11a3.007 3.007 0 0 1 1.5-2.594c.458-.27.958-.406 1.5-.406s1.042.135 1.5.406A3.007 3.007 0 0 1 15 11a3.007 3.007 0 0 1-1.5 2.594c-.458.27-.958.406-1.5.406zm-1.844 2.5c-.625.02-1.166.208-1.625.563-.479.375-.791.854-.937 1.437h8.812a2.572 2.572 0 0 0-.937-1.438c-.459-.354-1-.541-1.625-.562h-3.688zm0-1.5h3.688c1.166.02 2.146.427 2.937 1.219.792.791 1.198 1.77 1.219 2.937-.042.521-.323.802-.844.844H6.844c-.521-.042-.802-.323-.844-.844.02-1.166.427-2.146 1.219-2.937.791-.792 1.77-1.198 2.937-1.219z" fill="#2884E0"></path>
		</symbol>
	
		<symbol id="icon-achievement-range" viewBox="0 0 24 24">
			<path d="M10.594 4.092c.396.25.5.583.312 1L8.375 9.998h7.25l-2.531-4.906c-.188-.417-.084-.75.312-1 .417-.187.75-.083 1 .313l2.906 5.593h2.938c.458.042.708.292.75.75-.042.459-.292.709-.75.75h-.625l-1.75 7a1.99 1.99 0 0 1-.719 1.063c-.333.291-.74.437-1.218.437H8.061c-.479 0-.885-.146-1.218-.437a1.99 1.99 0 0 1-.719-1.063l-1.75-7H3.75c-.458-.041-.708-.291-.75-.75.042-.458.292-.708.75-.75h2.938l2.906-5.593c.25-.396.583-.5 1-.313zm7.5 7.406H5.937l1.657 6.625c.062.23.218.354.468.375h7.876a.538.538 0 0 0 .5-.375l1.656-6.625zM7.5 13.248c.042-.458.292-.708.75-.75.458.042.708.292.75.75-.042.459-.292.709-.75.75-.458-.041-.708-.291-.75-.75zm8.25-.75c.458.042.708.292.75.75-.042.459-.292.709-.75.75-.458-.041-.708-.291-.75-.75.042-.458.292-.708.75-.75z" fill="#2884E0"></path>
		</symbol>
	
		<symbol id="icon-achievement-social-guarantees" viewBox="0 0 24 24">
			<path d="M12.002 5.578l-5.72 2.438c-.187.104-.28.24-.28.406 0 .979.166 2.104.5 3.375.333 1.25.916 2.479 1.75 3.687.854 1.188 2.041 2.167 3.562 2.938.125.041.25.041.375 0 1.521-.771 2.709-1.75 3.563-2.938.833-1.208 1.416-2.437 1.75-3.687.333-1.271.5-2.396.5-3.375 0-.167-.094-.302-.282-.406l-5.718-2.438zm.406-1.437l5.906 2.5c.354.145.636.375.844.687a1.8 1.8 0 0 1 .344 1.094c.02 1.062-.157 2.312-.532 3.75-.375 1.437-1.052 2.833-2.03 4.187-.96 1.375-2.334 2.51-4.126 3.407-.541.25-1.083.25-1.625 0-1.792-.896-3.167-2.032-4.125-3.407-.979-1.354-1.656-2.75-2.031-4.187-.375-1.438-.552-2.688-.531-3.75a1.8 1.8 0 0 1 .343-1.094c.209-.312.49-.542.844-.687l5.906-2.5a.896.896 0 0 1 .407-.094c.146 0 .28.031.406.094z" fill="#2884E0"></path>
		</symbol>
	
		<symbol id="icon-arrow-button" viewBox="0 0 17 11">
			<path d="M16.238 6.122l-3.895 3.895A.88.88 0 0 1 11.1 8.773l2.434-2.407h-12.5a.866.866 0 0 1 0-1.732h12.5L11.1 2.227A.88.88 0 0 1 12.343.983l3.895 3.895a.9.9 0 0 1 0 1.244z" fill="#fff"></path>
		</symbol>
	
		<symbol id="icon-arrow-change" viewBox="0 0 16 16">
			<path d="M8.599 10.682a.87.87 0 0 1-.599.235.87.87 0 0 1-.599-.235L3.234 6.516a.87.87 0 0 1-.234-.6.87.87 0 0 1 .234-.598.87.87 0 0 1 .6-.235.87.87 0 0 1 .598.235L8 8.912l3.568-3.594a.87.87 0 0 1 .599-.235c.225 0 .425.079.599.235a.869.869 0 0 1 .234.599.869.869 0 0 1-.234.599l-4.167 4.166z"></path>
		</symbol>
	
		<symbol id="icon-arrow-next" viewBox="0 0 17 11">
			<path d="M16.738 6.122l-3.896 3.895a.88.88 0 0 1-1.244-1.244l2.435-2.407H1.532a.866.866 0 0 1 0-1.732h12.5l-2.434-2.407A.88.88 0 0 1 12.842.983l3.896 3.895a.9.9 0 0 1 0 1.244z" fill="#fff"></path>
		</symbol>
	
		<symbol id="icon-basked-card-favorite" viewBox="0 0 16 16">
			<path d="M7.687 3.386l.287.313.312-.313a3.798 3.798 0 0 1 1.51-.911 4.056 4.056 0 0 1 1.771-.13c.903.173 1.641.599 2.214 1.276.573.66.868 1.458.885 2.395v.157c-.017 1.128-.434 2.074-1.25 2.838L8.73 13.412a1.045 1.045 0 0 1-.73.287c-.277 0-.52-.096-.728-.287l-4.688-4.4c-.816-.765-1.233-1.71-1.25-2.84v-.156c.017-.937.313-1.736.885-2.395.573-.677 1.311-1.103 2.214-1.276a3.959 3.959 0 0 1 1.745.13 3.575 3.575 0 0 1 1.51.911c-.017 0-.017 0 0 0z" fill="#898A8C"></path>
		</symbol>
	
		<symbol id="icon-basket" viewBox="0 0 20 18">
			<path d="M.84.034h1.612c.817.047 1.4.42 1.75 1.121h14.395c.467.023.84.21 1.12.56.257.35.339.748.246 1.191l-1.436 5.359a2.455 2.455 0 0 1-.91 1.33c-.445.35-.958.526-1.542.526H5.99l.175 1.015c.117.42.397.642.84.666h10.087c.514.046.794.327.84.84-.046.514-.326.794-.84.84H7.004c-.63 0-1.167-.186-1.61-.56a2.538 2.538 0 0 1-.876-1.47L2.697 1.96c-.024-.164-.105-.246-.245-.246H.84C.327 1.67.047 1.39 0 .875.047.36.327.08.84.035zm3.748 2.802L5.674 8.44h10.401c.42-.024.689-.234.806-.63l1.366-4.974H4.587zm1.576 15.13c-.63-.024-1.12-.304-1.471-.84-.28-.561-.28-1.122 0-1.682.35-.537.84-.817 1.47-.84.631.023 1.122.303 1.472.84.28.56.28 1.12 0 1.681-.35.537-.84.817-1.471.84zm11.767-1.681c-.023.63-.303 1.12-.84 1.47-.56.28-1.12.28-1.681 0-.537-.35-.817-.84-.84-1.47.023-.63.303-1.121.84-1.471.56-.28 1.12-.28 1.68 0 .538.35.818.84.841 1.47z"></path>
		</symbol>
	
		<symbol id="icon-basket-del" viewBox="0 0 24 24">
			<path d="M9.914 6.422c.14-.266.367-.406.68-.422h2.812c.313.016.54.156.68.422l.164.328h2.25a.73.73 0 0 1 .54.21c.14.142.21.321.21.54a.73.73 0 0 1-.21.54.73.73 0 0 1-.54.21h-9a.73.73 0 0 1-.54-.21.73.73 0 0 1-.21-.54.73.73 0 0 1 .21-.54.73.73 0 0 1 .54-.21h2.25l.164-.328zM16.5 9l-.492 7.945a1.206 1.206 0 0 1-.352.75 1.1 1.1 0 0 1-.773.305H9.117a1.1 1.1 0 0 1-.773-.305 1.207 1.207 0 0 1-.352-.75L7.5 9h9z" fill="#898A8C"></path>
		</symbol>
	
		<symbol id="icon-basket-delivery-moscow" viewBox="0 0 18 18">
			<path d="M.818 2.455h10.637v2.454h1.969l.255.23 2.455 2.455.23.255v3.605h.818v1.637h-1.636c-.017.699-.256 1.278-.716 1.739-.46.46-1.04.698-1.739.715-.699-.017-1.278-.255-1.739-.716-.46-.46-.698-1.04-.716-1.738H7.364c-.017.699-.256 1.278-.716 1.739-.46.46-1.04.698-1.739.715-.699-.017-1.278-.255-1.738-.716-.46-.46-.7-1.04-.716-1.738H.818V2.455zm13.91 6.06l-1.97-1.97h-1.303V9h3.272v-.486zM6.136 13.09a1.274 1.274 0 0 0-.614-1.074 1.304 1.304 0 0 0-1.227 0 1.274 1.274 0 0 0-.614 1.074c.017.46.222.818.614 1.074.409.204.818.204 1.227 0 .392-.256.597-.614.614-1.074zm6.954 1.227c.46-.017.818-.221 1.074-.614.205-.409.205-.818 0-1.227a1.274 1.274 0 0 0-1.074-.613c-.46.017-.818.221-1.074.613a1.304 1.304 0 0 0 0 1.227c.256.393.614.597 1.074.614z" fill="#BBBDBF"></path>
		</symbol>
	
		<symbol id="icon-basket-delivery-picup" viewBox="0 0 18 18">
			<path d="M9 5.903A1.57 1.57 0 0 0 8.54 4.81a1.57 1.57 0 0 0-1.093-.461 1.57 1.57 0 0 0-1.093.461 1.57 1.57 0 0 0-.462 1.093c0 .13.016.251.049.364l-1.603-.194V6.05v-.146c.016-.874.315-1.611.898-2.21.6-.583 1.336-.883 2.21-.899.875.016 1.612.316 2.211.899.583.599.883 1.336.899 2.21V6l1.482-3.109 2.088.996-1.068 2.259L9 6.656l-.17-.024c.114-.227.17-.47.17-.729zm6.218 5.1v2.649L9 15.206l-6.218-1.554v-2.648l3.668 1.069.583.145.291-.51L9 8.94l1.676 2.77.292.51.583-.146 3.667-1.07zM2.782 6.657L9 7.433l6.218-.777 1.555 3.11-5.44 1.554L9 7.433 6.668 11.32l-5.44-1.555 1.554-3.109z" fill="#BBBDBF"></path>
		</symbol>
	
		<symbol id="icon-basket-delivery-post" viewBox="0 0 18 18">
			<path d="M4.909 3.273h3.273l-.819 3.272h-4.09l1.636-3.272zm5.727 3.272l-.818-3.272h3.273l1.636 3.272h-4.09zm-3.273.819v2.454h3.273V7.364h4.091v7.363H3.272V7.364h4.091z" fill="#BBBDBF"></path>
		</symbol>
	
		<symbol id="icon-burg-menu" viewBox="0 0 24 18">
			<path fill="#fff" d="M0 0h24v2H0zM0 8h24v2H0zM0 16h24v2H0z"></path>
		</symbol>
	
		<symbol id="icon-card-rating-star--full" viewBox="0 0 20 20">
			<path d="M10 2.392l2.225 5.349L18 8.204l-4.4 3.769 1.344 5.635L10 14.588l-4.944 3.02L6.4 11.973 2 8.203l5.775-.462L10 2.39z" fill="#FFBA33"></path>
		</symbol>
	
		<symbol id="icon-card-rating-star--half" viewBox="0 0 20 20">
			<path d="M10 2.392l2.225 5.349L18 8.204l-4.4 3.769 1.344 5.635L10 14.588l-4.944 3.02L6.4 11.973 2 8.203l5.775-.462L10 2.39z" fill="url(#a)"></path><defs><linearGradient id="a" x1="18" y1="10" x2="2" y2="10" gradientUnits="userSpaceOnUse"><stop offset=".39" stop-color="#BBBDBF"></stop><stop offset=".4" stop-color="#FFBA33"></stop></linearGradient></defs>
		</symbol>
	
		<symbol id="icon-category-filter-change" viewBox="0 0 16 16">
			<path d="M8.599 10.682a.87.87 0 0 1-.599.235.87.87 0 0 1-.599-.235L3.234 6.516a.87.87 0 0 1-.234-.6.87.87 0 0 1 .234-.598.87.87 0 0 1 .6-.235.87.87 0 0 1 .598.235L8 8.91l3.568-3.593a.87.87 0 0 1 .599-.235c.225 0 .425.078.599.235a.869.869 0 0 1 .234.599.869.869 0 0 1-.234.599l-4.167 4.166z"></path>
		</symbol>
	
		<symbol id="icon-close-panel" viewBox="0 0 16 16">
			<path d="M12.424 4.924L9.318 8l3.106 3.076c.176.195.264.42.264.674a.978.978 0 0 1-.264.674.978.978 0 0 1-.674.264.978.978 0 0 1-.674-.264L8 9.318l-3.076 3.106a.978.978 0 0 1-.674.264.978.978 0 0 1-.674-.264.978.978 0 0 1-.264-.674c0-.254.088-.479.264-.674L6.682 8 3.576 4.924a.978.978 0 0 1-.264-.674c0-.254.088-.479.264-.674a.978.978 0 0 1 .674-.264c.254 0 .479.088.674.264L8 6.682l3.076-3.106a.978.978 0 0 1 .674-.264c.254 0 .479.088.674.264.176.195.264.42.264.674a.978.978 0 0 1-.264.674z" fill="#212226"></path>
		</symbol>
	
		<symbol id="icon-close-search" viewBox="0 0 16 16">
			<path d="M12.424 4.924L9.318 8l3.106 3.076c.176.195.264.42.264.674a.978.978 0 0 1-.264.674.978.978 0 0 1-.674.264.978.978 0 0 1-.674-.264L8 9.318l-3.076 3.106a.978.978 0 0 1-.674.264.978.978 0 0 1-.674-.264.978.978 0 0 1-.264-.674c0-.254.088-.479.264-.674L6.682 8 3.576 4.924a.978.978 0 0 1-.264-.674c0-.254.088-.479.264-.674a.978.978 0 0 1 .674-.264c.254 0 .479.088.674.264L8 6.682l3.076-3.106a.978.978 0 0 1 .674-.264c.254 0 .479.088.674.264.176.195.264.42.264.674a.978.978 0 0 1-.264.674z" fill="#BBBDBF"></path>
		</symbol>
	
		<symbol id="icon-dewelopment" viewBox="0 0 52 12">
			<g clip-path="url(#a)" fill="#898A8C"><path d="M13.424 6.853V.752h2.191v6.025c0 1.415.823 2.388 2.39 2.388 1.567 0 2.373-.974 2.373-2.388V.752h2.207v6.086c0 2.526-1.492 4.245-4.58 4.245-3.09 0-4.58-1.735-4.58-4.23zM27.791 9.47l1.17-1.644a4.448 4.448 0 0 0 3.227 1.37c1.187 0 1.765-.548 1.765-1.127 0-1.795-5.843-.563-5.843-4.382C28.11 2 29.57.6 31.96.6c1.613 0 2.951.486 3.956 1.415l-1.203 1.582c-.82-.76-1.916-1.11-2.951-1.11-.928 0-1.445.41-1.445 1.02 0 1.612 5.827.532 5.827 4.32 0 1.857-1.324 3.257-4.062 3.257-1.947 0-3.347-.655-4.291-1.614zM41.212 5.792C41.212 2.71 43.467.5 46.551.5c3.098 0 5.353 2.209 5.353 5.292 0 3.083-2.255 5.292-5.353 5.292-3.084 0-5.339-2.209-5.339-5.292zm8.452 0c0-1.916-1.227-3.358-3.113-3.358-1.887 0-3.099 1.442-3.099 3.358 0 1.903 1.212 3.36 3.099 3.36 1.886 0 3.113-1.457 3.113-3.36zM5.935 7.035c1.095-.258 2.222-1.217 2.222-3.012 0-1.887-1.293-3.271-3.409-3.271H0v1.901h4.429c.867 0 1.521.517 1.521 1.37 0 .851-.655 1.37-1.521 1.37H0V10.9h2.16V7.295h1.584L5.737 10.9h2.48L5.936 7.035z"></path></g><defs><clipPath id="a"><path fill="#fff" transform="translate(0 .5)" d="M0 0h52v11H0z"></path></clipPath></defs>
		</symbol>
	
		<symbol id="icon-favorites" viewBox="0 0 20 18">
			<path d="M11.13 2.794c.57-.547 1.19-.916 1.86-1.126a5.08 5.08 0 0 1 2.196-.164c1.128.221 2.021.744 2.723 1.573l.008.01c.692.797 1.06 1.761 1.083 2.947v.217c-.024 1.421-.537 2.58-1.558 3.536h-.002l-7.026 6.598a.57.57 0 0 1-.414.163.57.57 0 0 1-.414-.163L2.559 9.788v-.001C1.535 8.83 1.023 7.672 1 6.25v-.217c.024-1.186.391-2.15 1.083-2.947l.009-.01c.701-.83 1.595-1.352 2.724-1.574a4.937 4.937 0 0 1 2.16.166c.691.21 1.3.573 1.833 1.103l.415.452.706.77.738-.739.462-.461z"></path>
		</symbol>
	
		<symbol id="icon-filter" viewBox="0 0 16 16">
			<path d="M2.094 3.285c.172-.344.453-.524.844-.54h10.124c.391.016.672.196.844.54.156.36.117.687-.117.984L9.5 9.52v2.977a.798.798 0 0 1-.422.68.733.733 0 0 1-.773-.07l-1.5-1.126a.734.734 0 0 1-.305-.61V9.52L2.21 4.27c-.233-.298-.272-.626-.116-.985z" fill="#2884E0"></path>
		</symbol>
	
		<symbol id="icon-form-check" viewBox="0 0 20 20">
			<path d="M15.737 6.133a.975.975 0 0 1 .263.672.975.975 0 0 1-.263.672l-6.39 6.39a.975.975 0 0 1-.672.263.975.975 0 0 1-.672-.263l-3.74-3.74A.975.975 0 0 1 4 9.455c0-.254.088-.478.263-.673a.975.975 0 0 1 .672-.263c.253 0 .477.088.672.263l3.068 3.098 5.718-5.747a.975.975 0 0 1 .672-.263c.253 0 .477.088.672.263z" fill="#2884E0"></path>
		</symbol>
	
		<symbol id="icon-form-edit" viewBox="0 0 16 17">
			<path d="M10.946 1.993c.366-.329.776-.493 1.233-.493.475 0 .886.164 1.232.493l1.096 1.096c.329.365.493.776.493 1.232 0 .475-.164.886-.493 1.233l-1.342 1.342-3.56-3.56 1.341-1.343zM9.002 3.938l3.56 3.56-6.409 6.41c-.292.273-.63.474-1.013.602l-3.287.959a.626.626 0 0 1-.657-.165.626.626 0 0 1-.165-.657l.959-3.287a2.33 2.33 0 0 1 .63-1.013l6.382-6.41z" fill="#BBBDBF"></path>
		</symbol>
	
		<symbol id="icon-form-file" viewBox="0 0 14 18">
			<path d="M6.156 10.195v3.586c.047.516.328.797.844.844.516-.047.797-.328.844-.844v-3.586l1.09 1.09c.398.328.796.328 1.195 0 .328-.398.328-.797 0-1.195L7.598 7.559c-.399-.329-.797-.329-1.196 0l-2.53 2.53c-.329.4-.329.798 0 1.196.398.328.796.328 1.194 0l1.09-1.09z" fill="#212226"></path><path fill-rule="evenodd" clip-rule="evenodd" d="M8.336 0H2.5C1.867.023 1.34.246.918.668.496 1.09.273 1.618.25 2.25v13.5c.023.633.246 1.16.668 1.582.422.422.95.645 1.582.668h9c.633-.023 1.16-.246 1.582-.668.422-.422.645-.95.668-1.582V5.45c0-.634-.223-1.173-.668-1.618L9.918.668C9.473.223 8.945 0 8.336 0zM2.5 16.313c-.352-.024-.54-.211-.563-.563V2.25c.024-.352.211-.54.563-.563h5.625V4.5c0 .328.105.598.316.809.211.21.48.316.809.316h2.813V15.75c-.024.352-.211.54-.563.563h-9z" fill="#212226"></path>
		</symbol>
	
		<symbol id="icon-help" viewBox="0 0 10 10">
			<path d="M5 10a5.119 5.119 0 0 1-2.5-.664A5.167 5.167 0 0 1 .664 7.5 5.063 5.063 0 0 1 0 5c0-.872.221-1.706.664-2.5A5.167 5.167 0 0 1 2.5.664 5.119 5.119 0 0 1 5 0a5.119 5.119 0 0 1 2.5.664A5.167 5.167 0 0 1 9.336 2.5C9.779 3.294 10 4.128 10 5c0 .872-.221 1.706-.664 2.5A5.167 5.167 0 0 1 7.5 9.336 5.119 5.119 0 0 1 5 10zM3.32 3.223v.039c-.078.273.013.468.274.586.273.078.475-.013.605-.274v-.039c.026-.065.078-.098.156-.098h1.133c.183.014.28.111.293.293a.264.264 0 0 1-.156.254l-.86.508a.445.445 0 0 0-.234.41v.254c.026.287.183.443.469.469.286-.026.443-.182.469-.469l.625-.351c.403-.248.612-.606.625-1.075-.013-.351-.13-.638-.352-.859a1.262 1.262 0 0 0-.879-.371H4.355a1.08 1.08 0 0 0-.644.195c-.182.13-.313.306-.39.528zm1.055 3.652c0 .182.059.332.176.45A.608.608 0 0 0 5 7.5a.608.608 0 0 0 .45-.176.608.608 0 0 0 .175-.449.608.608 0 0 0-.176-.45A.608.608 0 0 0 5 6.25a.608.608 0 0 0-.45.176.608.608 0 0 0-.175.449z" fill="#5C5F66"></path>
		</symbol>
	
		<symbol id="icon-lnk-beer" viewBox="0 0 21 21">
			<path d="M15.833 8.49h-.666V6.157a1 1 0 0 0-1-1h-.807a1.852 1.852 0 0 0-.867-1.067 2.09 2.09 0 0 0-1.193-.258 1.061 1.061 0 0 1-.96-.408 2.34 2.34 0 0 0-3.965.414A1.97 1.97 0 0 0 4.29 5.157H3.5a1 1 0 0 0-1 1v8.667a3.67 3.67 0 0 0 3.667 3.666H11.5a3.67 3.67 0 0 0 3.525-2.666h.808a2.667 2.667 0 0 0 2.667-2.667v-2a2.667 2.667 0 0 0-2.667-2.667zm-2.666 6.334A1.667 1.667 0 0 1 11.5 16.49H6.167A1.667 1.667 0 0 1 4.5 14.824V7.157h.333a1 1 0 0 1 1 1v3a1.333 1.333 0 0 0 2.667 0v-3a1 1 0 0 1 1-1h3.667v7.667zm3.333-1.667a.666.666 0 0 1-.667.667h-.666V10.49h.666a.667.667 0 0 1 .667.667v2z"></path>
		</symbol>
	
		<symbol id="icon-lnk-champagne" viewBox="0 0 21 21">
			<path clip-rule="evenodd" d="M5.698 10.488a4.81 4.81 0 0 0 3.835 4.705v1.37H7.944a.968.968 0 0 0 0 1.937h5.114a.968.968 0 0 0 0-1.936H11.47v-1.371c2.19-.45 3.836-2.397 3.833-4.764v-.014l-.534-5.872A2.238 2.238 0 0 0 12.53 2.5H8.472c-1.168 0-2.131.88-2.237 2.043l-.537 5.93v.015zm4.803 2.867c-1.58 0-2.86-1.282-2.87-2.795l.267-2.928h5.208l.263 2.87a2.871 2.871 0 0 1-2.868 2.853z"></path>
		</symbol>

		<symbol id="icon-lnk-whiskey" viewBox="0 0 21 21">
			<path fill-rule="evenodd" clip-rule="evenodd"
				d="M13.1516 14.833L14.8289 13.155C15.1591 12.8248 15.3415 12.3843 15.3415 11.9172C15.3415 11.4498 15.1582 11.0094 14.8289 10.6801L13.1517 9.00159C13.1423 8.99217 13.1325 8.98323 13.1223 8.9748C12.655 8.52848 11.9998 8.39154 11.4169 8.56293C11.1558 7.96375 10.5584 7.54428 9.86373 7.54428H7.34136C6.40701 7.54428 5.64777 8.30351 5.64777 9.23787V11.7602C5.64777 12.6946 6.40701 13.4538 7.34136 13.4538H9.29675L10.676 14.8337C11.0176 15.1753 11.4667 15.345 11.9138 15.345C12.3617 15.345 12.8101 15.1736 13.1516 14.833ZM9.43132 11.3285H7.77324L7.77366 9.6709H9.43132V11.3285ZM11.9134 13.0647L13.0592 11.9185L11.9134 10.7723L11.5573 11.1284V11.7609C11.5573 12.036 11.4915 12.2961 11.3747 12.526L11.9134 13.0647Z"
				fill="#B5B8BD" />
			<path fill-rule="evenodd" clip-rule="evenodd"
				d="M17.8995 3.89526C17.9043 3.90057 17.909 3.90599 17.9135 3.91152C18.3445 4.39664 18.5529 5.0419 18.4885 5.68715L17.5931 14.6409C17.4095 16.4803 15.8739 17.8692 14.025 17.8692H6.91508C5.05358 17.8692 3.51755 16.4696 3.34483 14.6166L2.50991 5.67091C2.44943 5.02028 2.66787 4.37198 3.10597 3.88976L3.10672 3.88894C3.54665 3.40718 4.17197 3.13077 4.82467 3.13077H16.1753C16.8316 3.13077 17.4594 3.40944 17.8995 3.89526ZM16.323 5.32043C16.284 5.27757 16.2341 5.2555 16.1759 5.2555H4.82467C4.76735 5.2555 4.71762 5.27731 4.67848 5.32032C4.63916 5.36352 4.62224 5.41461 4.6277 5.47204L5.46267 14.4184C5.5323 15.1736 6.15508 15.742 6.91508 15.742H14.0256C14.7794 15.742 15.4032 15.1779 15.4777 14.4284L16.3731 5.4751L16.323 5.32043Z"
				fill="#B5B8BD" />
		</symbol>

		<symbol id="icon-lnk-cognac" viewBox="0 0 21 21">
			<path d="M17.7219 4.15074C17.1539 3.52541 16.3446 3.16675 15.4999 3.16675H5.50006C4.6554 3.16675 3.84607 3.52541 3.27808 4.15074C2.71075 4.77606 2.43209 5.61672 2.51409 6.45671L3.23875 13.9186C3.45541 16.1499 5.30939 17.8332 7.55203 17.8332H13.448C15.6899 17.8332 17.5446 16.1506 17.7613 13.9186L18.4859 6.45671C18.5679 5.61605 18.2892 4.77606 17.7219 4.15074ZM4.76006 5.49472C4.9514 5.28339 5.21473 5.16673 5.50006 5.16673H15.4999C15.7859 5.16673 16.0486 5.28339 16.2399 5.49472C16.4319 5.70605 16.5226 5.97872 16.4946 6.26338L16.0186 11.1667H4.9814L4.5054 6.26338C4.4774 5.97938 4.56807 5.70605 4.76006 5.49472ZM13.448 15.8333H7.55203C6.34471 15.8333 5.34606 14.9273 5.23006 13.7253L5.17606 13.1666H15.8246L15.7706 13.7253C15.6539 14.9266 14.6546 15.8333 13.448 15.8333Z" fill="#B5B8BD" />
		</symbol>

		<symbol id="icon-lnk-non-food-products" viewBox="0 0 21 21">
			  <path d="M10.5331 11.8756L4.20031 18.2084C4.01237 18.3956 3.75776 18.5005 3.49249 18.5C3.22721 18.4995 2.97299 18.3936 2.78577 18.2057C2.59854 18.0178 2.49364 17.7632 2.49414 17.4979C2.49464 17.2326 2.6005 16.9784 2.78844 16.7912L9.12119 10.4618C8.61091 9.63219 8.39471 8.65503 8.50741 7.68764C8.62012 6.72025 9.05515 5.81895 9.74246 5.12891L12.1282 2.78713C12.3184 2.6059 12.5723 2.50682 12.835 2.5113C13.0977 2.51577 13.3481 2.62345 13.532 2.81105C13.7159 2.99865 13.8186 3.2511 13.8179 3.51382C13.8172 3.77653 13.7131 4.02841 13.5281 4.21499L11.1477 6.54811C10.8392 6.85998 10.6254 7.25285 10.531 7.68122C10.4367 8.10959 10.4656 8.55593 10.6144 8.96856L14.7873 4.79361C14.8802 4.70073 14.9904 4.62704 15.1117 4.57676C15.233 4.52648 15.363 4.50058 15.4944 4.50055C15.6257 4.50052 15.7557 4.52635 15.8771 4.57658C15.9984 4.62681 16.1087 4.70044 16.2015 4.79327C16.2944 4.88611 16.3681 4.99633 16.4184 5.11764C16.4687 5.23896 16.4946 5.36899 16.4946 5.50031C16.4946 5.63163 16.4688 5.76167 16.4186 5.88301C16.3683 6.00434 16.2947 6.1146 16.2019 6.20748L12.0283 10.3818C12.4427 10.5296 12.8905 10.5572 13.3199 10.4614C13.7494 10.3657 14.143 10.1504 14.4554 9.84048L16.7818 7.46736C16.8732 7.37142 16.9828 7.29461 17.1041 7.24139C17.2255 7.18817 17.3562 7.15959 17.4887 7.15734C17.6212 7.15508 17.7528 7.17918 17.8759 7.22823C17.999 7.27729 18.1111 7.35032 18.2058 7.44309C18.3004 7.53586 18.3756 7.64651 18.4271 7.76861C18.4786 7.89071 18.5053 8.02183 18.5056 8.15434C18.506 8.28685 18.48 8.41811 18.4292 8.5405C18.3784 8.66288 18.3038 8.77394 18.2097 8.86723L15.8766 11.2477C15.1872 11.939 14.2845 12.3772 13.3148 12.4913C12.3452 12.6054 11.3654 12.3887 10.5344 11.8763L10.5331 11.8756ZM15.9139 14.1741C15.82 14.0668 15.7043 13.9809 15.5745 13.922C15.4447 13.8632 15.3038 13.8327 15.1613 13.8328C14.0853 13.8763 13.0079 13.789 11.9529 13.5728L11.6863 13.5181C11.426 13.467 11.1562 13.5214 10.936 13.6693C10.7159 13.8172 10.5635 14.0465 10.5124 14.3067C10.4613 14.567 10.5157 14.8369 10.6636 15.057C10.8115 15.2771 11.0407 15.4295 11.301 15.4806L11.545 15.53C12.5832 15.7496 13.643 15.8502 14.704 15.8299L16.7405 18.157C16.9159 18.3538 17.1618 18.4733 17.4249 18.4896C17.6879 18.5059 17.9468 18.4178 18.1451 18.2443C18.3435 18.0707 18.4654 17.8259 18.4842 17.5631C18.503 17.3002 18.4173 17.0405 18.2457 16.8405L15.9139 14.1741ZM5.01556 10.939C5.17875 11.1482 5.41833 11.2839 5.6816 11.3165C5.94488 11.349 6.21029 11.2755 6.41943 11.1124C6.62858 10.9492 6.76434 10.7096 6.79684 10.4463C6.82935 10.183 6.75593 9.91764 6.59275 9.70849C5.50256 8.30191 4.78966 6.64022 4.52161 4.88093L6.32944 6.84409C6.5106 7.03261 6.75839 7.14268 7.01972 7.15071C7.28106 7.15874 7.53514 7.06409 7.72753 6.88704C7.91992 6.71 8.03531 6.46464 8.04897 6.20354C8.06264 5.94244 7.9735 5.68637 7.80064 5.49021L5.57685 3.07443C5.32872 2.80828 5.00597 2.62329 4.65091 2.54371C4.29584 2.46414 3.92502 2.49368 3.58703 2.62847C3.25931 2.75747 2.979 2.98382 2.78389 3.27703C2.58877 3.57024 2.48822 3.91621 2.4958 4.26832V4.5003C2.67743 6.84921 3.55465 9.09077 5.01556 10.939Z" fill="#B5B8BD" />
		</symbol>

		<symbol id="icon-lnk-vodka" viewBox="0 0 21 21">
			<path fill-rule="evenodd" clip-rule="evenodd" d="M4.95052 2.69876C5.23853 2.56783 5.55122 2.50006 5.86759 2.5H15.1322C15.4486 2.49999 15.7614 2.56771 16.0494 2.69861C16.3375 2.82951 16.5942 3.02056 16.8023 3.25891C17.0103 3.4973 17.1649 3.77752 17.2556 4.08061C17.3464 4.38371 17.3712 4.70272 17.3284 5.0162L15.9026 15.4714C15.7857 16.3092 15.3705 17.0775 14.7332 17.6337C14.096 18.1899 13.2795 18.4975 12.4336 18.5L8.56708 18.5C7.72115 18.4975 6.90367 18.1898 6.26642 17.6334C5.62917 17.0771 5.21407 16.3095 5.09739 15.4716L3.67142 5.01618C3.62871 4.70271 3.65358 4.38369 3.74438 4.08063C3.83518 3.77756 3.98979 3.49745 4.19783 3.2591C4.40587 3.02075 4.66252 2.82969 4.95052 2.69876ZM15.1322 4.36345H5.86764C5.8172 4.36345 5.76729 4.37424 5.72136 4.3951C5.67543 4.41597 5.6345 4.44643 5.60132 4.48443C5.56815 4.52242 5.54349 4.56709 5.52901 4.61541C5.51453 4.66372 5.51056 4.71457 5.51736 4.76455L5.82189 6.99799H13.0702C13.3173 6.99799 13.5543 7.09616 13.729 7.27089C13.9038 7.44562 14.0019 7.68261 14.0019 7.92972C14.0019 8.17683 13.9038 8.41382 13.729 8.58855C13.5543 8.76328 13.3173 8.86145 13.0702 8.86145H6.07618L6.9431 15.2183C6.99792 15.6105 7.19242 15.9703 7.4908 16.2307C7.78915 16.4911 8.17139 16.6352 8.56738 16.6365H12.4325C12.8284 16.6352 13.2106 16.4912 13.5089 16.2309C13.8073 15.9706 14.0018 15.6114 14.0567 15.2193L15.4825 4.76458C15.4893 4.71461 15.4853 4.66372 15.4709 4.61541C15.4564 4.56709 15.4317 4.52243 15.3985 4.48443C15.3654 4.44643 15.3244 4.41597 15.2785 4.3951C15.2326 4.37424 15.1827 4.36345 15.1322 4.36345Z" fill="#B5B8BD" />
	  	</symbol>

		<symbol id="icon-lnk-miscellaneous" viewBox="0 0 21 21">
			<path d="M14.4955 8.49914C12.2893 8.49914 10.4951 10.742 10.4951 13.4996C10.4951 16.2571 12.2893 18.5 14.4955 18.5C16.7017 18.5 18.4958 16.2571 18.4958 13.4996C18.4958 10.742 16.7017 8.49914 14.4955 8.49914ZM13.8988 10.6567C14.0461 11.1247 14.1368 11.9488 13.5961 13.0622C13.1667 13.9476 13.004 14.7397 12.984 15.4184C12.6853 14.8924 12.496 14.225 12.496 13.4989C12.496 12.1848 13.0974 11.0487 13.8994 10.656L13.8988 10.6567ZM15.0929 16.3418C14.9455 15.8738 14.8555 15.0497 15.3956 13.9363C15.8249 13.0509 15.9876 12.2588 16.0076 11.5801C16.3063 12.1061 16.4957 12.7735 16.4957 13.4996C16.4957 14.8137 15.8943 15.9498 15.0922 16.3425L15.0929 16.3418ZM10.8025 3.52538C9.99844 2.72131 8.80967 2.36661 7.53822 2.5453C6.35612 2.71464 5.19002 3.3227 4.25394 4.25811C2.2471 6.26562 1.91774 9.2032 3.52055 10.806C4.18727 11.4727 5.11868 11.8321 6.14144 11.8321C6.35212 11.8321 6.56747 11.8168 6.78416 11.7861C7.96626 11.6167 9.13236 11.0087 10.0684 10.0733C12.0759 8.06577 12.4046 5.12885 10.8025 3.52605V3.52538ZM7.82158 4.52547C7.92359 4.51147 8.0496 4.49946 8.18895 4.49946C8.39697 4.49946 8.63299 4.53213 8.86367 4.61614C8.63765 5.07418 8.09894 5.78291 6.83416 6.22095C5.81341 6.57431 5.09001 7.07102 4.57397 7.5844C4.72398 6.93434 5.09401 6.24761 5.66873 5.67223C6.29145 5.04951 7.07552 4.63214 7.82158 4.52547ZM6.50214 9.80592C6.24678 9.84126 5.84341 9.85726 5.45871 9.71725C5.68407 9.25921 6.22278 8.54915 7.48955 8.11044C8.51031 7.75708 9.2337 7.26037 9.74975 6.74699C9.59973 7.39705 9.2297 8.08377 8.65499 8.65915C8.03227 9.28187 7.2482 9.69991 6.50214 9.80659V9.80592Z" fill="#B5B8BD" />
	  	</symbol>
	
		<symbol id="icon-lnk-cider" viewBox="0 0 21 21">
			<path clip-rule="evenodd" d="M14.728 8.426l-1.981-1.321V3.468a.968.968 0 0 0-.968-.968H9.222a.968.968 0 0 0-.968.968v3.637l-1.981 1.32a4.155 4.155 0 0 0-1.856 3.466v3.084A3.529 3.529 0 0 0 7.942 18.5h5.115a3.529 3.529 0 0 0 3.526-3.525V11.89a4.156 4.156 0 0 0-1.855-3.465zm-4.539-.803V5.714h.621v1.909a.97.97 0 0 0 .431.805l2.412 1.609c.621.414.992 1.106.992 1.854v3.148a1.592 1.592 0 0 1-1.588 1.525H7.942c-.875 0-1.589-.713-1.589-1.59v-2.227h5.609a.968.968 0 0 0 0-1.937h-5.33c.17-.306.413-.572.714-.773L9.76 8.428a.969.969 0 0 0 .43-.805z"></path>
		</symbol>

		<symbol id="icon-lnk-cider-new" viewBox="0 0 21 21">
			<path d="M14.0005 2.50067C11.9232 2.50067 10.1752 3.91733 9.65918 5.834H4.83384C4.16784 5.834 3.53184 6.11933 3.08918 6.61733C2.64784 7.11533 2.43851 7.78 2.51651 8.44067L3.32184 15.2633C3.53984 17.1087 5.10518 18.5 6.96318 18.5H10.7032C12.5612 18.5 14.1272 17.1087 14.3445 15.2633L15.1498 8.44067C15.2278 7.77933 15.0192 7.11467 14.5772 6.61733C14.1345 6.11933 13.4985 5.834 12.8325 5.834H11.8018C12.2225 5.04467 13.0445 4.50067 13.9992 4.50067C15.3778 4.50067 16.4992 5.622 16.4992 7.00067C16.4992 7.376 16.4185 7.73667 16.2592 8.07067C16.0218 8.57 16.2338 9.166 16.7325 9.40333C17.2318 9.64067 17.8278 9.42867 18.0652 8.93C18.3532 8.32467 18.4992 7.67533 18.4992 7C18.4992 4.51867 16.4805 2.5 13.9992 2.5L14.0005 2.50067ZM10.7038 16.5007H6.96384C6.11918 16.5007 5.40784 15.868 5.30851 15.0293L4.93118 11.834H8.16718C8.71984 11.834 9.16718 11.3867 9.16718 10.834C9.16718 10.2813 8.71984 9.834 8.16718 9.834H4.69518L4.50318 8.206C4.48784 8.07733 4.54784 7.98733 4.58518 7.946C4.62251 7.90467 4.70384 7.834 4.83451 7.834H9.57984C9.89784 9.50133 11.1505 10.8733 12.7958 11.332L12.3592 15.0293C12.2605 15.868 11.5485 16.5007 10.7038 16.5007ZM13.0825 7.946C13.1198 7.98733 13.1798 8.07733 13.1645 8.20667L13.0358 9.29733C12.3892 9.024 11.8845 8.492 11.6492 7.83467H12.8332C12.9638 7.83467 13.0452 7.904 13.0825 7.946Z" fill="#B5B8BD" />
		</symbol>
	
		<symbol id="icon-lnk-collection" viewBox="0 0 21 21">
			<path clip-rule="evenodd" d="M15.655 2.793l.22-.016v.002l.001.006.001.019a3.54 3.54 0 0 1 .004.32c-.005.21-.024.503-.08.834-.114.658-.38 1.492-1.009 2.12l-.003.004a3.8 3.8 0 0 1-.73.548 5.963 5.963 0 0 1 4.403 5.833c.068 4.146-4.196 7.216-7.962 5.597-3.765 1.62-8.03-1.451-7.962-5.596A5.927 5.927 0 0 1 8.34 6.437h.912a7.971 7.971 0 0 0-.831-2.64l-.102-.195L10.426 2.5l.103.197c.42.807.73 1.665.925 2.55a4.79 4.79 0 0 1 .904-1.58l.005-.005.006-.006c.629-.629 1.463-.895 2.12-1.008a5.757 5.757 0 0 1 1.155-.077h.02l.005.001h.001l-.015.221zm0 0l.015-.22.191.014.015.19-.221.016zM8.348 8.814a3.548 3.548 0 0 0-3.433 3.644v.01c-.05 2.66 2.772 4.512 5.006 3.235l.003-.002.576-.317.577.318c.481.27 1.023.41 1.575.41 1.141-.037 1.985-.503 2.546-1.173.565-.676.853-1.572.853-2.475s-.287-1.798-.852-2.474c-.561-.671-1.405-1.137-2.547-1.176H8.348z"></path>
		</symbol>
	
		<symbol id="icon-lnk-corporate" viewBox="0 0 21 21">
			<path d="M15.833 8.49h-.666V6.157a1 1 0 0 0-1-1h-.807a1.852 1.852 0 0 0-.867-1.067 2.09 2.09 0 0 0-1.193-.258 1.061 1.061 0 0 1-.96-.408 2.34 2.34 0 0 0-3.965.414A1.97 1.97 0 0 0 4.29 5.157H3.5a1 1 0 0 0-1 1v8.667a3.67 3.67 0 0 0 3.667 3.666H11.5a3.67 3.67 0 0 0 3.525-2.666h.808a2.667 2.667 0 0 0 2.667-2.667v-2a2.667 2.667 0 0 0-2.667-2.667zm-2.666 6.334A1.667 1.667 0 0 1 11.5 16.49H6.167A1.667 1.667 0 0 1 4.5 14.824V7.157h.333a1 1 0 0 1 1 1v3a1.333 1.333 0 1 0 2.667 0v-3a1 1 0 0 1 1-1h3.667v7.667zm3.333-1.667a.666.666 0 0 1-.667.667h-.666V10.49h.666a.667.667 0 0 1 .667.667v2z"></path>
		</symbol>
	
		<symbol id="icon-lnk-exclusive" viewBox="0 0 21 21">
			<path clip-rule="evenodd" d="M13.152 14.833l1.677-1.678c.33-.33.512-.77.512-1.238 0-.467-.183-.908-.512-1.237l-1.677-1.678a1.752 1.752 0 0 0-1.735-.439 1.695 1.695 0 0 0-1.553-1.019H7.34c-.934 0-1.693.76-1.693 1.694v2.522c0 .935.759 1.694 1.693 1.694h1.956l1.379 1.38c.342.341.79.511 1.238.511.448 0 .896-.171 1.238-.512zm-3.72-3.505H7.772V9.671h1.658v1.658zm2.481 1.737l1.146-1.146-1.146-1.147-.356.356v.633c0 .275-.066.535-.182.765l.538.539z"></path><path clip-rule="evenodd" d="M17.9 3.895l.014.017c.43.485.639 1.13.574 1.775l-.895 8.954a3.576 3.576 0 0 1-3.568 3.228h-7.11a3.571 3.571 0 0 1-3.57-3.252L2.51 5.67c-.06-.65.158-1.299.596-1.781v-.001a2.33 2.33 0 0 1 1.719-.758h11.35a2.33 2.33 0 0 1 1.724.764zM16.322 5.32a.192.192 0 0 0-.147-.064H4.825a.191.191 0 0 0-.147.064.19.19 0 0 0-.05.152l.835 8.946a1.45 1.45 0 0 0 1.452 1.324h7.11c.754 0 1.378-.564 1.453-1.314l.895-8.953-.05-.155z"></path>
		</symbol>
	
		<symbol id="icon-lnk-gift-baskets" viewBox="0 0 21 21">
			<path clip-rule="evenodd" d="M14.728 8.426l-1.981-1.321V3.468a.968.968 0 0 0-.968-.968H9.222a.968.968 0 0 0-.968.968v3.637l-1.981 1.32a4.155 4.155 0 0 0-1.856 3.466v3.084A3.529 3.529 0 0 0 7.942 18.5h5.115a3.529 3.529 0 0 0 3.526-3.525V11.89a4.156 4.156 0 0 0-1.855-3.465zm-4.539-.803V5.714h.621v1.909a.97.97 0 0 0 .431.805l2.412 1.609c.621.414.992 1.106.992 1.854v3.148a1.592 1.592 0 0 1-1.588 1.525H7.942c-.875 0-1.589-.713-1.589-1.59v-2.227h5.609a.968.968 0 0 0 0-1.937h-5.33c.17-.306.413-.572.714-.773L9.76 8.428a.969.969 0 0 0 .43-.805z"></path>
		</symbol>
	
		<symbol id="icon-lnk-heating-systems" viewBox="0 0 21 21">
			<path clip-rule="evenodd" d="M5.698 10.488a4.81 4.81 0 0 0 3.835 4.705v1.37H7.944a.968.968 0 0 0 0 1.937h5.114a.968.968 0 0 0 0-1.936H11.47v-1.371c2.19-.45 3.836-2.397 3.833-4.764v-.014l-.534-5.872A2.238 2.238 0 0 0 12.53 2.5H8.472c-1.168 0-2.131.88-2.237 2.043l-.537 5.93v.015zm4.803 2.867c-1.58 0-2.86-1.282-2.87-2.795l.267-2.928h5.208l.263 2.87a2.871 2.871 0 0 1-2.868 2.853z"></path>
		</symbol>
	
		<symbol id="icon-lnk-low-alcohol-drinks" viewBox="0 0 21 21">
			<path d="M18.14 4.015A2.912 2.912 0 0 0 15.585 2.5H5.415A2.912 2.912 0 0 0 2.86 4.015a2.849 2.849 0 0 0 .096 2.941A9.357 9.357 0 0 0 9.5 11.1v5.4h-2a1 1 0 0 0 0 2h6a1 1 0 0 0 0-2h-2v-5.4a9.356 9.356 0 0 0 6.544-4.145 2.848 2.848 0 0 0 .096-2.94zM10.5 9.167a7.38 7.38 0 0 1-5.878-3.334h11.756A7.38 7.38 0 0 1 10.5 9.167z"></path>
		</symbol>

		<symbol id="icon-lnk-low-alcohol-drinks-new" viewBox="0 0 21 21">
			<path fill-rule="evenodd" clip-rule="evenodd" d="M13.2068 4C12.9888 4 12.8054 4.16438 12.7815 4.38071L12.6491 5.57144H15.2215C16.7098 5.57144 17.8184 6.93578 17.5245 8.38672L16.5094 15.7677C16.2753 17.6154 14.7024 19 12.8408 19H8.15867C6.29652 19 4.7249 17.6149 4.4901 15.7679L3.47493 8.38323C3.18276 6.93293 4.29095 5.57144 5.77796 5.57144H10.6368L10.7936 4.16071C10.7936 4.16088 10.7936 4.16055 10.7936 4.16071C10.9299 2.93158 11.9693 2 13.2068 2H15.8568C16.4091 2 16.8568 2.44772 16.8568 3C16.8568 3.55228 16.4091 4 15.8568 4H13.2068ZM10.4144 7.57144H5.77796C5.55459 7.57144 5.38883 7.77745 5.43722 7.99619C5.44305 8.02258 5.44782 8.04919 5.4515 8.07597L5.59816 9.14285H10.2397L10.4144 7.57144ZM11.1227 11.1428C11.1315 11.143 11.1403 11.143 11.1491 11.1428H15.1266L14.5273 15.5009L14.5257 15.5132C14.4196 16.3622 13.697 17 12.8408 17H8.15867C7.30295 17 6.58033 16.3626 6.47376 15.5127L5.8731 11.1428H11.1227ZM15.4016 9.14285H12.252L12.4267 7.57144H15.2215C15.4448 7.57144 15.6114 7.77835 15.5626 7.99764C15.5566 8.02448 15.5517 8.05154 15.548 8.07877L15.4016 9.14285ZM10.8468 12.7203C11.3958 12.7807 11.7919 13.2746 11.7315 13.8236L11.6529 14.5379C11.5925 15.0869 11.0986 15.4829 10.5496 15.4226C10.0006 15.3622 9.60453 14.8682 9.66492 14.3192L9.74349 13.6049C9.80388 13.056 10.2979 12.6599 10.8468 12.7203Z" fill="#B5B8BD" />
		</symbol>
	
		<symbol id="icon-lnk-products" viewBox="0 0 21 21">
			<path clip-rule="evenodd" d="M15.655 2.793l.22-.016v.002l.001.006.001.019a3.54 3.54 0 0 1 .004.32c-.005.21-.024.503-.08.834-.114.658-.38 1.492-1.009 2.12l-.003.004a3.8 3.8 0 0 1-.73.548 5.963 5.963 0 0 1 4.403 5.833c.068 4.146-4.196 7.216-7.962 5.597-3.765 1.62-8.03-1.451-7.962-5.596A5.927 5.927 0 0 1 8.34 6.437h.912a7.971 7.971 0 0 0-.831-2.64l-.102-.195L10.426 2.5l.103.197c.42.807.73 1.665.925 2.55a4.79 4.79 0 0 1 .904-1.58l.005-.005.006-.006c.629-.629 1.463-.895 2.12-1.008a5.757 5.757 0 0 1 1.155-.077h.02l.005.001h.001l-.015.221zm0 0l.015-.22.191.014.015.19-.221.016zM8.348 8.814a3.548 3.548 0 0 0-3.433 3.644v.01c-.05 2.66 2.772 4.512 5.006 3.235l.003-.002.576-.317.577.318c.481.27 1.023.41 1.575.41 1.141-.037 1.985-.503 2.546-1.173.565-.676.853-1.572.853-2.475s-.287-1.798-.852-2.474c-.561-.671-1.405-1.137-2.547-1.176H8.348z"></path>
		</symbol>
	
		<symbol id="icon-lnk-sale" viewBox="0 0 21 21">
			<path d="M10.5 18.5a3.862 3.862 0 0 1-2.813-1.214 3.867 3.867 0 0 1-3.979-3.978c-1.602-1.434-1.602-4.194 0-5.627a3.867 3.867 0 0 1 1.13-2.848 3.825 3.825 0 0 1 2.849-1.131c1.433-1.603 4.193-1.603 5.626 0a3.867 3.867 0 0 1 3.979 3.978c1.602 1.434 1.602 4.193 0 5.627a3.868 3.868 0 0 1-3.979 3.979A3.861 3.861 0 0 1 10.5 18.5zm-2.377-3.267a1 1 0 0 1 .83.442c.688 1.086 2.407 1.086 3.095 0a.999.999 0 0 1 1.02-.423 1.863 1.863 0 0 0 1.678-.512 1.87 1.87 0 0 0 .512-1.678 1 1 0 0 1 .423-1.02c1.086-.688 1.086-2.408 0-3.096a1 1 0 0 1-.423-1.02 1.866 1.866 0 0 0-2.19-2.19.998.998 0 0 1-1.02-.422c-.688-1.086-2.407-1.086-3.095 0a.996.996 0 0 1-1.02.423 1.866 1.866 0 0 0-2.19 2.19 1 1 0 0 1-.423 1.02c-1.087.687-1.087 2.407 0 3.095a1 1 0 0 1 .423 1.02 1.866 1.866 0 0 0 2.19 2.19.98.98 0 0 1 .19-.019zm.042-7.407c-1.316.022-1.315 1.979 0 2.001 1.316-.023 1.315-1.98 0-2.001zm4.67 3.335c-1.316.023-1.315 1.98 0 2.002 1.316-.023 1.315-1.98 0-2.002zm-2.837 1.89l2.669-4.003a1 1 0 1 0-1.665-1.11L8.333 11.94a1 1 0 1 0 1.665 1.11z"></path>
		</symbol>
	
		<symbol id="icon-lnk-soft-drink" viewBox="0 0 21 21">
			<path d="M15.833 8.49h-.666V6.157a1 1 0 0 0-1-1h-.807a1.852 1.852 0 0 0-.867-1.067 2.09 2.09 0 0 0-1.193-.258 1.061 1.061 0 0 1-.96-.408 2.34 2.34 0 0 0-3.965.414A1.97 1.97 0 0 0 4.29 5.157H3.5a1 1 0 0 0-1 1v8.667a3.67 3.67 0 0 0 3.667 3.666H11.5a3.671 3.671 0 0 0 3.525-2.666h.808a2.667 2.667 0 0 0 2.667-2.667v-2a2.667 2.667 0 0 0-2.667-2.667zm-2.666 6.334A1.666 1.666 0 0 1 11.5 16.49H6.167A1.667 1.667 0 0 1 4.5 14.824V7.157h.333a1 1 0 0 1 1 1v3a1.333 1.333 0 0 0 2.667 0v-3a1 1 0 0 1 1-1h3.667v7.667zm3.333-1.667a.666.666 0 0 1-.667.667h-.666V10.49h.666a.666.666 0 0 1 .667.667v2z"></path>
		</symbol>

		<symbol id="icon-lnk-soft-drink-new" viewBox="0 0 21 21">
			<path fill-rule="evenodd" clip-rule="evenodd" d="M5.27443 3.78244C5.63356 3.02446 6.40569 2.5 7.29989 2.5H13.6999C14.5941 2.5 15.3662 3.02446 15.7254 3.78244C16.9132 3.83755 17.8599 4.8186 17.8599 6.02C17.8599 6.64662 17.6024 7.2133 17.1874 7.61992L16.5758 12.5093C16.5739 12.5302 16.5713 12.5508 16.5681 12.5712L16.2122 15.4164C16.2122 15.4165 16.2122 15.4163 16.2122 15.4164C15.9921 17.1779 14.4952 18.5 12.7201 18.5H8.27976C6.50487 18.5 5.00707 17.1783 4.78701 15.4165C4.787 15.4165 4.78701 15.4166 4.78701 15.4165L4.4295 12.5564C4.42797 12.5457 4.42662 12.5349 4.42545 12.5241L3.81244 7.61995C3.39745 7.21333 3.13989 6.64664 3.13989 6.02C3.13989 4.8186 4.08661 3.83754 5.27443 3.78244ZM5.82739 8.26L6.22738 11.46L7.72691 11.46C7.84786 10.9299 8.0685 10.4415 8.37422 10.0339C8.85804 9.38873 9.59975 8.9 10.4999 8.9C11.4001 8.9 12.1418 9.38873 12.6256 10.0339C12.9313 10.4415 13.152 10.9299 13.2729 11.46L14.7721 11.46L15.1724 8.26H5.82739ZM14.532 13.38L13.2729 13.38C13.152 13.9101 12.9313 14.3985 12.6256 14.8061C12.1418 15.4513 11.4001 15.94 10.4999 15.94C9.59975 15.94 8.85805 15.4513 8.37422 14.8061C8.0685 14.3985 7.84786 13.9101 7.72691 13.38L6.46738 13.38L6.69218 15.1784C6.79216 15.979 7.47292 16.58 8.27976 16.58H12.7201C13.5266 16.58 14.207 15.9794 14.307 15.1785L14.532 13.38ZM7.29989 4.42C7.12353 4.42 6.97989 4.56363 6.97989 4.74C6.97989 5.2702 6.55009 5.7 6.01989 5.7H5.37989C5.20353 5.7 5.05989 5.84364 5.05989 6.02C5.05989 6.19637 5.20353 6.34 5.37989 6.34H15.6199C15.7963 6.34 15.9399 6.19637 15.9399 6.02C15.9399 5.84364 15.7963 5.7 15.6199 5.7H14.9799C14.4497 5.7 14.0199 5.2702 14.0199 4.74C14.0199 4.56364 13.8763 4.42 13.6999 4.42H7.29989ZM9.91025 11.1858C9.69897 11.4676 9.53992 11.9007 9.53992 12.42C9.53992 12.9393 9.69897 13.3725 9.91025 13.6542C10.1213 13.9356 10.3396 14.02 10.4999 14.02C10.6602 14.02 10.8785 13.9356 11.0896 13.6542C11.3009 13.3725 11.4599 12.9393 11.4599 12.42C11.4599 11.9007 11.3009 11.4676 11.0896 11.1858C10.8785 10.9044 10.6602 10.82 10.4999 10.82C10.3396 10.82 10.1213 10.9044 9.91025 11.1858Z" fill="#B5B8BD" />
		</symbol>
	
		<symbol id="icon-lnk-strong-alcohol" viewBox="0 0 21 21">
			<path clip-rule="evenodd" d="M13.152 14.833l1.677-1.678c.33-.33.512-.77.512-1.238a1.74 1.74 0 0 0-.512-1.237l-1.677-1.678a1.752 1.752 0 0 0-1.735-.439 1.695 1.695 0 0 0-1.553-1.019H7.34c-.934 0-1.693.76-1.693 1.694v2.522c0 .935.759 1.694 1.693 1.694h1.956l1.379 1.38c.342.341.79.511 1.238.511.448 0 .896-.171 1.238-.512zm-3.72-3.505H7.772V9.671h1.658v1.658zm2.481 1.737l1.146-1.146-1.146-1.147-.356.356v.633c0 .275-.066.535-.182.765l.538.539z"></path><path clip-rule="evenodd" d="M17.9 3.895l.014.017c.43.485.639 1.13.574 1.775l-.895 8.954a3.576 3.576 0 0 1-3.568 3.228h-7.11a3.571 3.571 0 0 1-3.57-3.252L2.51 5.67c-.06-.65.158-1.299.596-1.781v-.001a2.33 2.33 0 0 1 1.719-.758h11.35a2.33 2.33 0 0 1 1.724.764zM16.322 5.32a.192.192 0 0 0-.147-.065H4.825a.191.191 0 0 0-.147.065.19.19 0 0 0-.05.152l.835 8.946a1.45 1.45 0 0 0 1.452 1.324h7.11c.754 0 1.378-.564 1.453-1.314l.895-8.953-.05-.155z"></path>
		</symbol>

		<symbol id="icon-lnk-strong-alcohol-new" viewBox="0 0 21 21">
			<path fill-rule="evenodd" clip-rule="evenodd" d="M14.7281 8.42585L12.747 7.10489V3.46806C12.747 2.9336 12.3134 2.5 11.7789 2.5H9.22172C8.6864 2.5 8.25365 2.93381 8.25365 3.46806V7.10489L6.27259 8.4258C5.11087 9.19958 4.41724 10.4952 4.41724 11.8908V14.9748C4.41724 16.9189 5.99837 18.5 7.94248 18.5H13.0575C15.0016 18.5 16.5827 16.9189 16.5827 14.9748V11.8908C16.5827 10.4952 15.8891 9.19963 14.7281 8.42585ZM10.1891 7.62285V5.71408H10.8102V7.62285C10.8102 7.94643 10.9724 8.24853 11.2411 8.42827L13.6532 10.0368C14.2745 10.4508 14.6453 11.1434 14.6453 11.8908V15.0389C14.6115 15.8851 13.9118 16.5639 13.0575 16.5639H7.94248C7.06666 16.5639 6.35336 15.8506 6.35336 14.9748V12.747H11.9616C12.4973 12.747 12.9297 12.3121 12.9297 11.7783C12.9297 11.2438 12.4961 10.8102 11.9616 10.8102H6.63226C6.80196 10.5041 7.04449 10.2375 7.34622 10.0367L9.75871 8.42799C10.0274 8.24824 10.1891 7.94643 10.1891 7.62285Z" fill="#B5B8BD" />
		</symbol>
	
		<symbol id="icon-lnk-wine" viewBox="0 0 21 21">
			<path d="M18.14 4.015A2.912 2.912 0 0 0 15.585 2.5H5.415A2.912 2.912 0 0 0 2.86 4.015a2.849 2.849 0 0 0 .096 2.941A9.357 9.357 0 0 0 9.5 11.1v5.4h-2a1 1 0 0 0 0 2h6a1 1 0 0 0 0-2h-2v-5.4a9.356 9.356 0 0 0 6.544-4.145 2.848 2.848 0 0 0 .096-2.94zM10.5 9.167a7.38 7.38 0 0 1-5.878-3.334h11.756A7.38 7.38 0 0 1 10.5 9.167z"></path>
		</symbol>
	
		<symbol id="icon-load" viewBox="0 0 16 16">
			<path d="M10.5 7c-.333-.02-.563-.177-.688-.469-.124-.291-.072-.562.157-.812l1.281-1.282C10.23 3.48 9.052 3 7.719 3c-1.313 0-2.48.49-3.5 1.469C3.239 5.489 2.75 6.667 2.75 8c0 1.333.49 2.51 1.469 3.531C5.239 12.511 6.417 13 7.75 13c1.333 0 2.51-.49 3.531-1.469.209-.187.448-.281.719-.281.27 0 .5.094.688.281a.988.988 0 0 1 .312.719c0 .27-.104.5-.313.688-.916.916-1.968 1.53-3.156 1.843a7.36 7.36 0 0 1-3.562 0c-1.188-.312-2.24-.927-3.157-1.844-.916-.916-1.53-1.968-1.843-3.156a7.362 7.362 0 0 1 0-3.562c.312-1.188.927-2.24 1.844-3.157.916-.916 1.968-1.53 3.156-1.843a7.235 7.235 0 0 1 3.531 0c1.188.291 2.24.896 3.156 1.812L13.97 1.72c.25-.23.52-.282.812-.157.292.125.448.355.469.688v4c-.042.458-.292.708-.75.75h-4z" fill="#212226"></path>
		</symbol>
	
		<symbol id="icon-menu-back" viewBox="0 0 16 17">
			<path d="M5.318 9.099a.87.87 0 0 1-.235-.599.87.87 0 0 1 .235-.599l4.166-4.167a.87.87 0 0 1 .6-.234.87.87 0 0 1 .598.234.87.87 0 0 1 .235.6.87.87 0 0 1-.235.598L7.09 8.5l3.593 3.568a.87.87 0 0 1 .235.599.87.87 0 0 1-.235.599.869.869 0 0 1-.599.234.869.869 0 0 1-.599-.234L5.318 9.099z" fill="#212226"></path>
		</symbol>
	
		<symbol id="icon-menu-close" viewBox="0 0 20 20">
			<path fill="#fff" d="M2.43 16.293L16.57 2.15l1.414 1.414L3.843 17.707z"></path><path fill="#fff" d="M3.429 2.293L17.57 16.435l-1.414 1.414L2.015 3.707z"></path>
		</symbol>
	
		<symbol id="icon-menu-next" viewBox="0 0 16 17">
			<path d="M10.682 7.901a.87.87 0 0 1 .235.599.87.87 0 0 1-.235.599l-4.166 4.167a.869.869 0 0 1-.6.234.869.869 0 0 1-.598-.234.869.869 0 0 1-.235-.6.87.87 0 0 1 .235-.598L8.91 8.5 5.318 4.932a.87.87 0 0 1-.235-.599.87.87 0 0 1 .235-.599.87.87 0 0 1 .599-.234.87.87 0 0 1 .599.234l4.166 4.167z" fill="#212226"></path>
		</symbol>
	
		<symbol id="icon-menu-open" viewBox="0 0 20 14">
			<path fill="#fff" d="M0 0h20v2H0zM0 6h20v2H0zM0 12h20v2H0z"></path>
		</symbol>
	
		<symbol id="icon-minus" viewBox="0 0 16 16">
			<path d="M2 8a.9.9 0 0 1 .9-.9h10.2a.9.9 0 1 1 0 1.8H2.9A.9.9 0 0 1 2 8z" fill="#212226"></path>
		</symbol>
	
		<symbol id="icon-place" viewBox="0 0 14 20">
			<path d="M7 0C3.502 0 .333 2.836.333 6.335.333 11.537 5.648 12.088 7 20c1.353-7.912 6.667-8.463 6.667-13.665C13.667 2.835 10.499 0 7 0zm0 9.167a2.5 2.5 0 1 1 0-5 2.5 2.5 0 0 1 0 5z" fill="#fff"></path>
		</symbol>
	
		<symbol id="icon-plus" viewBox="0 0 16 16">
			<path fill-rule="evenodd" clip-rule="evenodd" d="M8.9 2.9a.9.9 0 1 0-1.8 0v4.2H2.9a.9.9 0 1 0 0 1.8h4.2v4.2a.9.9 0 1 0 1.8 0V8.9h4.2a.9.9 0 1 0 0-1.8H8.9V2.9z" fill="#212226"></path>
		</symbol>
	
		<symbol id="icon-product-buy" viewBox="0 0 20 18">
			<path d="M.84.034h1.612c.817.047 1.4.42 1.75 1.121h14.395c.467.023.84.21 1.12.56.257.35.339.748.246 1.191l-1.436 5.359a2.455 2.455 0 0 1-.91 1.33c-.445.35-.958.526-1.542.526H5.99l.175 1.015c.117.42.397.642.84.666h10.087c.514.046.794.327.84.84-.046.514-.326.794-.84.84H7.004c-.63 0-1.167-.186-1.61-.56a2.538 2.538 0 0 1-.876-1.47L2.697 1.96c-.024-.164-.105-.246-.245-.246H.84C.327 1.67.047 1.388 0 .875.047.36.327.08.84.035zm3.748 2.802L5.674 8.44h10.401c.42-.024.689-.234.806-.63l1.366-4.974H4.587zm1.576 15.13c-.63-.024-1.12-.304-1.471-.84-.28-.561-.28-1.122 0-1.682.35-.537.84-.817 1.47-.84.631.023 1.122.303 1.472.84.28.56.28 1.12 0 1.681-.35.537-.84.817-1.471.84zm11.767-1.681c-.023.63-.303 1.12-.84 1.47-.56.28-1.12.28-1.681 0-.537-.35-.817-.84-.84-1.47.023-.63.303-1.121.84-1.471.56-.28 1.12-.28 1.68 0 .538.35.818.84.841 1.47z" fill="#fff"></path>
		</symbol>
	
		<symbol id="icon-product-compare" viewBox="0 0 24 24">
			<path d="M2.938 3.25c.572.052.885.365.937.938v13.75c.052.572.365.885.938.937h16.25c.572.052.885.365.937.938-.052.572-.365.885-.938.937H4.813c-.807-.026-1.47-.3-1.992-.82-.52-.521-.794-1.185-.82-1.992V4.188c.052-.573.365-.886.938-.938zm5.624 7.5c.573.052.886.365.938.938v3.124c-.052.573-.365.886-.938.938-.572-.052-.885-.365-.937-.938v-3.124c.052-.573.365-.886.938-.938zm4.688-2.813v6.875c-.052.573-.365.886-.938.938-.572-.052-.885-.365-.937-.938V7.939c.052-.573.365-.886.938-.938.572.052.885.365.937.938zM16.063 9.5c.572.052.885.365.937.938v4.374c-.052.573-.365.886-.938.938-.572-.052-.885-.365-.937-.938v-4.374c.052-.573.365-.886.938-.938zm4.687-4.063v9.375c-.052.573-.365.886-.938.938-.572-.052-.885-.365-.937-.938V5.438c.052-.573.365-.886.938-.938.572.052.885.365.937.938z" fill="#898A8C"></path>
		</symbol>
	
		<symbol id="icon-product-favorite" viewBox="0 0 24 24">
			<path d="M11.531 5.08l.43.468.469-.469c.677-.65 1.432-1.106 2.265-1.367a6.084 6.084 0 0 1 2.657-.195c1.354.26 2.46.898 3.32 1.914.86.99 1.302 2.187 1.328 3.594v.234c-.026 1.693-.651 3.112-1.875 4.258l-7.031 6.601c-.313.287-.677.43-1.094.43-.417 0-.781-.143-1.094-.43l-7.031-6.601C2.651 12.37 2.026 10.952 2 9.259v-.234c.026-1.407.469-2.604 1.328-3.594.86-1.016 1.966-1.654 3.32-1.914a5.938 5.938 0 0 1 2.618.195c.859.26 1.614.716 2.265 1.367-.026 0-.026 0 0 0zm.43 3.124l-1.758-1.836c-.911-.833-1.992-1.171-3.242-1.015-.912.182-1.654.612-2.227 1.289-.546.677-.833 1.471-.859 2.383v.234c.026 1.146.443 2.11 1.25 2.89L12 18.557l6.875-6.406c.807-.782 1.224-1.745 1.25-2.89v-.235c-.026-.912-.326-1.706-.898-2.383-.547-.677-1.276-1.107-2.188-1.29-1.25-.155-2.33.183-3.242 1.016L11.96 8.204z" fill="#898A8C"></path>
		</symbol>
	
		<symbol id="icon-product-star" viewBox="0 0 20 20">
			<path d="M10 2.392l2.225 5.349L18 8.204l-4.4 3.769 1.344 5.635L10 14.588l-4.944 3.02L6.4 11.973 2 8.203l5.775-.462L10 2.39z" fill="#FFBA33"></path>
		</symbol>
	
		<symbol id="icon-rating-star" viewBox="0 0 16 16">
			<path d="M8 .392l2.225 5.349L16 6.204l-4.4 3.769 1.344 5.635L8 12.588l-4.944 3.02L4.4 9.973 0 6.203l5.775-.462L8 .391z"></path>
		</symbol>
	
		<symbol id="icon-readmore" viewBox="0 0 17 10">
			<path d="M16.74 5.622l-3.896 3.895A.88.88 0 0 1 11.6 8.273l2.435-2.407H1.534a.866.866 0 0 1 0-1.732h12.5L11.6 1.727A.88.88 0 0 1 12.844.483l3.896 3.895a.9.9 0 0 1 0 1.244z"></path>
		</symbol>
	
		<symbol id="icon-reset" viewBox="0 0 10 10">
			<path d="M8.909 2.423L6.303 5l2.606 2.577.636.666-1.302 1.302-.666-.637L5 6.303 2.423 8.908l-.666.637L.455 8.243l.637-.666L3.697 5 1.092 2.423l-.637-.666L1.757.455l.666.636L5 3.697l2.577-2.606.666-.636 1.303 1.302-.637.666z"></path>
		</symbol>
	
		<symbol id="icon-reviews-comment" viewBox="0 0 16 17">
			<path d="M15.5 8.031a5.285 5.285 0 0 1-1.025 3.076c-.665.918-1.563 1.65-2.696 2.198-1.113.527-2.373.8-3.779.82-1.094 0-2.11-.176-3.047-.527-.371.273-.898.576-1.582.908a6.558 6.558 0 0 1-2.402.556c-.196 0-.342-.097-.44-.292a.467.467 0 0 1 .117-.498v-.03l.03-.03c.039-.038.088-.097.146-.175.137-.137.283-.342.44-.615.332-.508.547-1.123.644-1.846C.988 10.56.52 9.38.5 8.031a5.286 5.286 0 0 1 1.025-3.076c.664-.918 1.563-1.65 2.696-2.197C5.334 2.23 6.594 1.957 8 1.938c1.406.019 2.666.292 3.78.82 1.132.547 2.03 1.28 2.695 2.197A5.286 5.286 0 0 1 15.5 8.031z" fill="#BBBDBF"></path>
		</symbol>
	
		<symbol id="icon-reviews-minus" viewBox="0 0 16 17">
			<path d="M2 8.5a.9.9 0 0 1 .9-.9h10.2a.9.9 0 1 1 0 1.8H2.9a.9.9 0 0 1-.9-.9z" fill="#E51818"></path>
		</symbol>
	
		<symbol id="icon-reviews-plus" viewBox="0 0 16 17">
			<path fill-rule="evenodd" clip-rule="evenodd" d="M8.9 3.4a.9.9 0 1 0-1.8 0v4.2H2.9a.9.9 0 1 0 0 1.8h4.2v4.2a.9.9 0 1 0 1.8 0V9.4h4.2a.9.9 0 1 0 0-1.8H8.9V3.4z" fill="#1BB31B"></path>
		</symbol>
	
		<symbol id="icon-reviews-star" viewBox="0 0 20 21">
			<path d="M10 2.892l2.225 5.349L18 8.704l-4.4 3.769 1.344 5.635L10 15.088l-4.944 3.02L6.4 12.473 2 8.703l5.775-.462L10 2.891z" fill="#BBBDBF"></path>
		</symbol>
	
		<symbol id="icon-reviews-star--full" viewBox="0 0 20 21">
			<path d="M10 2.892l2.225 5.349L18 8.704l-4.4 3.769 1.344 5.635L10 15.088l-4.944 3.02L6.4 12.473 2 8.703l5.775-.462L10 2.891z" fill="#FFBA33"></path>
		</symbol>
	
		<symbol id="icon-reviews-star-big--full" viewBox="0 0 30 30">
			<path d="M15 3.587l3.337 8.024 8.663.695-6.6 5.653 2.016 8.454L15 21.883l-7.416 4.53L9.6 17.959 3 12.306l8.663-.695L15 3.587z" fill="#FFBA33"></path>
		</symbol>
	
		<symbol id="icon-search" viewBox="0 0 16 16">
			<path d="M15.936 14.43L11.8 10.295a6.454 6.454 0 0 0 1.238-3.807A6.494 6.494 0 0 0 6.55 0 6.494 6.494 0 0 0 .064 6.487a6.494 6.494 0 0 0 6.486 6.486 6.452 6.452 0 0 0 3.658-1.132L14.367 16l1.57-1.57zM1.966 6.488a4.59 4.59 0 0 1 4.585-4.585 4.59 4.59 0 0 1 4.585 4.585A4.59 4.59 0 0 1 6.55 11.07a4.59 4.59 0 0 1-4.585-4.584z"></path>
		</symbol>
	
		<symbol id="icon-select" viewBox="0 0 16 17">
			<path d="M8.599 11.182a.87.87 0 0 1-.599.235.87.87 0 0 1-.599-.235L3.234 7.016a.87.87 0 0 1-.234-.6.87.87 0 0 1 .234-.598.87.87 0 0 1 .6-.235.87.87 0 0 1 .598.235L8 9.41l3.568-3.593a.87.87 0 0 1 .599-.235c.225 0 .425.078.599.235a.869.869 0 0 1 .234.599.869.869 0 0 1-.234.599l-4.167 4.166z"></path>
		</symbol>
	
		<symbol id="icon-selected-stores" viewBox="0 0 16 17">
			<g clip-path="url(#a)"><path d="M2 2c.02-.417.167-.77.438-1.063A1.63 1.63 0 0 1 3.5.5h9c.417.02.77.167 1.063.438.27.291.416.645.437 1.062v13.75c-.042.458-.292.708-.75.75a.77.77 0 0 1-.438-.125L8 13l-4.813 3.375a.77.77 0 0 1-.437.125c-.458-.042-.708-.292-.75-.75V2z" fill="#E51818"></path></g><defs><clipPath id="a"><path fill="#fff" transform="translate(0 .5)" d="M0 0h16v16H0z"></path></clipPath></defs>
		</symbol>
	
		<symbol id="icon-shops-selected" viewBox="0 0 12 17">
			<path d="M6.574 12.181L6 11.78l-.574.402L1 15.285V2.03a.629.629 0 0 1 .146-.383.629.629 0 0 1 .383-.146h8.942a.629.629 0 0 1 .383.146c.084.1.134.216.146.383v13.256l-4.426-3.104z"></path>
		</symbol>
	
		<symbol id="icon-slider-arrow-next" viewBox="0 0 16 16">
			<path d="M8.599 10.682a.869.869 0 0 1-.599.235.869.869 0 0 1-.599-.235L3.234 6.516a.87.87 0 0 1-.234-.6.87.87 0 0 1 .234-.598.87.87 0 0 1 .6-.235.87.87 0 0 1 .598.235L8 8.91l3.568-3.593a.87.87 0 0 1 .599-.235c.225 0 .425.078.599.235a.869.869 0 0 1 .234.599.869.869 0 0 1-.234.599l-4.167 4.166z" fill="#212226"></path>
		</symbol>
	
		<symbol id="icon-slider-arrow-prev" viewBox="0 0 16 16">
			<path d="M7.401 5.318A.87.87 0 0 1 8 5.083a.87.87 0 0 1 .599.235l4.167 4.166a.869.869 0 0 1 .234.6.869.869 0 0 1-.234.598.869.869 0 0 1-.6.235.869.869 0 0 1-.598-.235L8 7.09l-3.568 3.593a.869.869 0 0 1-.599.235.869.869 0 0 1-.599-.235.87.87 0 0 1-.234-.599.87.87 0 0 1 .234-.599l4.167-4.166z" fill="#898A8C"></path>
		</symbol>
	
		<symbol id="icon-slider-next" viewBox="0 0 24 24">
			<path d="M19.738 12.622l-3.896 3.895a.88.88 0 0 1-1.244-1.244l2.435-2.407H4.532a.866.866 0 1 1 0-1.732h12.5l-2.434-2.407a.88.88 0 0 1 1.244-1.244l3.896 3.895a.9.9 0 0 1 0 1.244z"></path>
		</symbol>
	
		<symbol id="icon-slider-prev" viewBox="0 0 24 24">
			<path d="M4.262 11.378l3.896-3.895a.88.88 0 0 1 1.244 1.244l-2.435 2.407h12.501a.866.866 0 1 1 0 1.732h-12.5l2.434 2.407a.88.88 0 0 1-1.244 1.244l-3.896-3.895a.9.9 0 0 1 0-1.244z"></path>
		</symbol>
	
		<symbol id="icon-social-in" viewBox="0 0 14 14">
			<path d="M7 1.262c1.869 0 2.09.007 2.83.04 1.896.087 2.782.987 2.869 2.87.033.738.04.96.04 2.829 0 1.87-.007 2.09-.04 2.828-.087 1.881-.971 2.783-2.87 2.87-.738.033-.959.04-2.829.04-1.869 0-2.09-.007-2.829-.04-1.901-.087-2.783-.992-2.869-2.87-.034-.738-.04-.96-.04-2.829 0-1.869.007-2.09.04-2.829.087-1.882.97-2.783 2.87-2.869.738-.033.959-.04 2.828-.04zM7 0C5.099 0 4.86.008 4.114.042 1.572.159.16 1.569.043 4.114.008 4.86 0 5.099 0 7c0 1.901.008 2.14.042 2.886.117 2.543 1.527 3.955 4.072 4.072.747.034.985.042 2.886.042 1.901 0 2.14-.008 2.886-.042 2.54-.117 3.957-1.527 4.071-4.072C13.992 9.14 14 8.901 14 7c0-1.901-.008-2.14-.042-2.886C13.844 1.574 12.431.16 9.887.043 9.14.008 8.9 0 7 0zm0 3.405a3.595 3.595 0 1 0 0 7.19 3.595 3.595 0 0 0 0-7.19zm0 5.928a2.333 2.333 0 1 1 0-4.666 2.333 2.333 0 0 1 0 4.666zm3.737-6.91a.84.84 0 1 0 0 1.681.84.84 0 0 0 0-1.68z" fill="#BBBDBF"></path>
		</symbol>
	
		<symbol id="icon-social-vk" viewBox="0 0 14 10">
			<path d="M7.678 9.08c.355 0 .5-.237.496-.534-.018-1.118.416-1.72 1.2-.936.869.868 1.049 1.47 2.103 1.47h1.866c.472 0 .657-.152.657-.39 0-.503-.829-1.392-1.531-2.044-.984-.913-1.03-.934-.183-2.033 1.05-1.365 2.425-3.113 1.21-3.113h-2.323c-.45 0-.483.254-.643.632-.58 1.369-1.684 3.142-2.102 2.87C7.99 4.72 8.19 3.6 8.223 1.935c.01-.44.007-.741-.665-.898a4.707 4.707 0 0 0-1.055-.12c-1.326 0-2.24.557-1.721.653.916.171.828 2.154.615 3.01C5.025 6.07 3.626 3.4 3.043 2.07c-.14-.32-.184-.569-.685-.569H.459C.172 1.5 0 1.593 0 1.801c0 .351 1.727 3.92 3.375 5.699 1.608 1.735 3.197 1.58 4.303 1.58z" fill="#BBBDBF"></path>
		</symbol>
	
		<symbol id="icon-social-yo" viewBox="0 0 14 12">
			<path d="M11.442.857C9.34.714 4.657.714 2.558.857.285 1.013.017 2.386 0 6c.017 3.608.282 4.987 2.558 5.143 2.1.143 6.782.143 8.884 0C13.715 10.988 13.983 9.614 14 6c-.017-3.608-.282-4.987-2.558-5.143zM5.25 8.333V3.667l4.667 2.329L5.25 8.333z" fill="#BBBDBF"></path>
		</symbol>
	
		<symbol id="icon-user" viewBox="0 0 18 20">
			<path d="M12.125 5c-.026-1.172-.547-2.07-1.563-2.695-1.041-.573-2.083-.573-3.124 0C6.421 2.93 5.9 3.828 5.875 5c.026 1.172.547 2.07 1.563 2.695 1.041.573 2.083.573 3.125 0C11.578 7.07 12.098 6.172 12.124 5zM4 5c0-.911.221-1.745.664-2.5A5.167 5.167 0 0 1 6.5.664 4.991 4.991 0 0 1 9 0c.885 0 1.719.221 2.5.664A5.167 5.167 0 0 1 13.336 2.5c.443.755.664 1.589.664 2.5s-.221 1.745-.664 2.5A5.167 5.167 0 0 1 11.5 9.336 4.991 4.991 0 0 1 9 10a4.991 4.991 0 0 1-2.5-.664A5.167 5.167 0 0 1 4.664 7.5 4.853 4.853 0 0 1 4 5zM2.164 18.125h13.672c-.208-1.276-.768-2.318-1.68-3.125-.937-.807-2.057-1.224-3.36-1.25H7.204c-1.302.026-2.409.443-3.32 1.25-.938.807-1.51 1.849-1.719 3.125zm-1.914.703c.052-1.953.73-3.594 2.031-4.922 1.328-1.302 2.969-1.979 4.922-2.031h3.594c1.953.052 3.594.73 4.922 2.031 1.302 1.328 1.979 2.969 2.031 4.922 0 .339-.117.612-.352.82-.208.235-.481.352-.82.352H1.422c-.339 0-.612-.117-.82-.352-.235-.208-.352-.481-.352-.82z"></path>
		</symbol>
	
</svg>
