<svg width="20" height="20" viewBox="0 0 20 20" fill="none" xmlns="http://www.w3.org/2000/svg">
<path d="M9.39062 4.61719V4.64258L10 5.68359L10.6094 4.61719C11.0664 3.90625 11.7266 3.53385 12.5898 3.5H12.6406C13.2669 3.51693 13.7917 3.73698 14.2148 4.16016C14.638 4.58333 14.8581 5.10807 14.875 5.73438C14.875 6.10677 14.7904 6.44531 14.6211 6.75H15.2812C15.6198 6.76693 15.9076 6.88542 16.1445 7.10547C16.3646 7.34245 16.4831 7.63021 16.5 7.96875V9.59375C16.4661 10.1523 16.1953 10.5332 15.6875 10.7363V14.875C15.6706 15.332 15.5098 15.7129 15.2051 16.0176C14.9004 16.3223 14.5195 16.4831 14.0625 16.5H5.9375C5.48047 16.4831 5.09961 16.3223 4.79492 16.0176C4.49023 15.7129 4.32943 15.332 4.3125 14.875V10.7363C3.80469 10.5332 3.53385 10.1523 3.5 9.59375V7.96875C3.51693 7.63021 3.63542 7.34245 3.85547 7.10547C4.09245 6.88542 4.38021 6.76693 4.71875 6.75H5.37891C5.20964 6.44531 5.125 6.10677 5.125 5.73438C5.14193 5.10807 5.36198 4.58333 5.78516 4.16016C6.20833 3.73698 6.73307 3.51693 7.35938 3.5H7.41016C8.27344 3.53385 8.93359 3.90625 9.39062 4.61719ZM15.2812 7.96875H10.8125V9.59375H15.2812V7.96875ZM9.1875 7.96875H4.71875V9.59375H9.1875V7.96875ZM9.1875 10.8125H5.53125V14.875C5.54818 15.1289 5.68359 15.2643 5.9375 15.2812H9.1875V10.8125ZM10.8125 15.2812H14.0625C14.3164 15.2643 14.4518 15.1289 14.4688 14.875V10.8125H10.8125V15.2812ZM12.6406 6.75C12.9284 6.75 13.1654 6.64844 13.3516 6.44531C13.5547 6.25911 13.6562 6.02214 13.6562 5.73438C13.6562 5.44661 13.5547 5.20964 13.3516 5.02344C13.1654 4.82031 12.9284 4.71875 12.6406 4.71875H12.5898C12.1836 4.73568 11.8789 4.91341 11.6758 5.25195L10.7871 6.75H12.6406ZM9.21289 6.75L8.34961 5.25195C8.12956 4.91341 7.81641 4.73568 7.41016 4.71875H7.35938C7.07161 4.71875 6.83464 4.82031 6.64844 5.02344C6.44531 5.20964 6.34375 5.44661 6.34375 5.73438C6.34375 6.02214 6.44531 6.25911 6.64844 6.44531C6.83464 6.64844 7.07161 6.75 7.35938 6.75H9.21289Z" fill="#EE4763"/>
</svg>

