<svg width="16" height="16" viewBox="0 0 16 16" fill="none" xmlns="http://www.w3.org/2000/svg">
<path d="M12.4238 4.92383L9.31836 8L12.4238 11.0762C12.5996 11.2715 12.6875 11.4961 12.6875 11.75C12.6875 12.0039 12.5996 12.2285 12.4238 12.4238C12.2285 12.5996 12.0039 12.6875 11.75 12.6875C11.4961 12.6875 11.2715 12.5996 11.0762 12.4238L8 9.31836L4.92383 12.4238C4.72852 12.5996 4.50391 12.6875 4.25 12.6875C3.99609 12.6875 3.77148 12.5996 3.57617 12.4238C3.40039 12.2285 3.3125 12.0039 3.3125 11.75C3.3125 11.4961 3.40039 11.2715 3.57617 11.0762L6.68164 8L3.57617 4.92383C3.40039 4.72852 3.3125 4.50391 3.3125 4.25C3.3125 3.99609 3.40039 3.77148 3.57617 3.57617C3.77148 3.40039 3.99609 3.3125 4.25 3.3125C4.50391 3.3125 4.72852 3.40039 4.92383 3.57617L8 6.68164L11.0762 3.57617C11.2715 3.40039 11.4961 3.3125 11.75 3.3125C12.0039 3.3125 12.2285 3.40039 12.4238 3.57617C12.5996 3.77148 12.6875 3.99609 12.6875 4.25C12.6875 4.50391 12.5996 4.72852 12.4238 4.92383Z" fill="#212226"/>
</svg>
