<svg width="20" height="21" viewBox="0 0 20 21" fill="none" xmlns="http://www.w3.org/2000/svg">
<path d="M15.737 6.6331C15.9123 6.82791 16 7.05194 16 7.30518C16 7.55843 15.9123 7.78245 15.737 7.97726L9.3474 14.3669C9.1526 14.5422 8.92857 14.6299 8.67532 14.6299C8.42208 14.6299 8.19805 14.5422 8.00325 14.3669L4.26299 10.6266C4.08766 10.4318 4 10.2078 4 9.95453C4 9.70129 4.08766 9.47726 4.26299 9.28245C4.45779 9.10713 4.68182 9.01947 4.93506 9.01947C5.18831 9.01947 5.41234 9.10713 5.60714 9.28245L8.67532 12.3799L14.3929 6.6331C14.5877 6.45778 14.8117 6.37012 15.0649 6.37012C15.3182 6.37012 15.5422 6.45778 15.737 6.6331Z" fill="#2884E0"/>
</svg>
