<?xml version="1.0" encoding="UTF-8"?>
<svg id="_Слой_1" data-name="Слой 1" xmlns="http://www.w3.org/2000/svg" viewBox="0 0 2078.54 376" width='140'>
  <defs>
    <style>
      .cls-1 {
        fill: #7fb774;
      }

      .cls-2 {
        fill: #d90429;
      }

      .cls-3 {
        fill: #782c4b;
      }

      .cls-4 {
        fill: #ef233c;
      }

      .cls-5 {
        fill: #003459;
      }

      .cls-6 {
        fill: #fdc500;
      }

      .cls-7 {
        fill: #786692;
      }

      .cls-8 {
        fill: #eb6515;
      }

      .cls-9 {
        fill: #00a8e8;
      }
    </style>
  </defs>
  <path class="cls-5" d="m1041.27,175.58v.5c0-.16,0-.33-.01-.49h.01Z"/>
  <g>
    <path class="cls-4" d="m113.12,178.88c-2.62,5.18-2.42,9.96-2.23,11.94l.49,176.49c0,.82.14,3.07,1.74,5.21,2.19,2.93,5.46,3.4,6.08,3.47h-50.83v-3.47c-.8-.02-17.12-.51-21.71-9.55-.56-1.11-1.29-3.01-1.74-5.21-.28-1.38-1.7-7.77.87-12.16,2.56-4.36,6.69-3.92,14.76-7.82,1.97-.96,9.97-4.82,14.76-10.42,7.19-8.4,6.5-19.89,6.08-26.92-.47-7.83-4.08-17.49-11.29-36.47-2.1-5.53-3.89-10.06-5.08-13.03h-28.12c-.36-6.66-.71-13.31-1.07-19.97-.51-5.19-.64-14.31,3.47-24.31,1.4-3.4,3.66-8.76,8.68-13.89,4.91-5.03,7.26-4.5,13.89-10.42,2.08-1.86,6.55-5.9,10.42-12.16,2.26-3.64,5.53-9.99,6.95-18.96l.87-37.49c.58-20.26,1.15-40.53,1.74-60.79-.58-.88-1.23-2.03-1.74-3.47-.87-2.47-.94-4.66-.87-6.08.72-10.27,1.45-20.55,2.17-30.83.04-.61.29-2.89,2.17-4.78,2.27-2.26,5.16-2.19,5.64-2.17h34.07c.49-.02,3.38-.09,5.64,2.17,1.89,1.88,2.13,4.17,2.17,4.78.73,10.27,1.45,20.55,2.17,30.83.08,1.42,0,3.61-.87,6.08-.5,1.44-1.15,2.6-1.74,3.47.58,20.26,1.16,40.53,1.74,60.79l.87,37.49c.65,4.12,1.69,7.68,2.86,10.69-4.49,2.47-8.99,4.93-13.48,7.4-1.71.88-6.55,3.62-9.55,9.55Z"/>
    <path class="cls-7" d="m176.71,230.98c-2.31,43.42-4.63,86.84-6.95,130.25-.47,1.68-2.08,6.58-6.95,10.42-5.05,3.99-10.44,4.31-12.16,4.34h-31.46c-.62-.08-3.89-.55-6.08-3.47-1.6-2.14-1.73-4.39-1.74-5.21l-.49-176.49c-.19-1.98-.39-6.76,2.23-11.94,3-5.93,7.84-8.67,9.55-9.55,4.49-2.47,8.99-4.93,13.48-7.4,1.36,3.54,2.87,6.3,4.09,8.27,3.88,6.25,8.34,10.3,10.42,12.16,6.63,5.92,8.98,5.39,13.89,10.42,5.02,5.13,7.29,10.5,8.68,13.89,4.12,10,3.99,19.12,3.47,24.31Z"/>
    <path class="cls-9" d="m176.71,230.98c.51-5.19.64-14.31-3.47-24.31-1.4-3.4-3.66-8.76-8.68-13.89-4.91-5.03-7.26-4.5-13.89-10.42-2.08-1.86-6.54-5.9-10.42-12.16-1.22-1.96-2.73-4.72-4.09-8.27,10.27-5.64,20.54-11.28,30.81-16.92,1.08-.81,2.33-1.94,3.47-3.47,3.03-4.06,3.43-8.43,3.47-10.42.58-10.13,1.15-20.26,1.74-30.39-1.61-5.39-1.38-9.44-.87-12.16.7-3.73,2.22-6.37.87-9.55-.69-1.62-1.7-2.41-1.74-4.34-.04-2.48,1.6-4.2,1.74-4.34,1.29-1.32,2.82-1.64,3.38-1.74h32.75c.56.1,2.08.42,3.38,1.74.14.14,1.78,1.86,1.74,4.34-.03,1.93-1.05,2.73-1.74,4.34-1.35,3.18.16,5.82.87,9.55.51,2.72.74,6.76-.87,12.16.58,10.13,1.15,20.26,1.74,30.39.04,1.99.44,6.36,3.47,10.42,1.15,1.54,2.4,2.67,3.47,3.47,11.72,6.43,23.45,12.87,35.17,19.31-3.19,8.01-4.39,10.68-6.08,17.16-4.35,16.69-4.72,31.13-4.34,40.81.29,45.44.58,90.89.87,136.33-.03,1.14-.13,7.97,5.21,13.03,3.43,3.25,7.34,4.09,8.97,4.34h-112.97c1.72-.03,7.1-.36,12.16-4.34,4.86-3.84,6.48-8.74,6.95-10.42,2.32-43.42,4.64-86.84,6.95-130.25Z"/>
    <path class="cls-1" d="m279.91,190.82l-.49,176.49c0,.82-.14,3.07-1.74,5.21-2.19,2.93-5.46,3.4-6.08,3.47h-7.96c-1.63-.25-5.54-1.09-8.97-4.34-5.34-5.05-5.24-11.89-5.21-13.03-.29-45.44-.58-90.89-.87-136.33-.38-9.68,0-24.12,4.34-40.81,1.68-6.48,2.89-9.14,6.08-17.16,3.04,1.67,6.08,3.33,9.12,5,1.71.88,6.55,3.62,9.55,9.55,2.62,5.18,2.42,9.96,2.23,11.94Z"/>
    <path class="cls-6" d="m351.54,222.3c-.09,14.34-.18,28.67-.28,43.01-13.38.14-26.77.28-40.15.41,13.26,19.03,26.53,38.06,39.79,57.09h0c-.02,3.74-.04,7.49-.07,11.22v.03c-.16,7.9-.33,15.81-.49,23.71-.28,2.21-.95,3.92-1.63,5.21-5.1,9.5-19.21,9.56-20.37,9.55v3.47h-56.74c.62-.08,3.89-.55,6.08-3.47,1.6-2.14,1.73-4.39,1.74-5.21l.49-176.49c.19-1.98.39-6.76-2.23-11.94-3-5.93-7.84-8.67-9.55-9.55-3.04-1.67-6.08-3.33-9.12-5,1.5-3.77,3.45-8.74,6.08-15.84,8.2-22.09,12.35-33.4,14.76-46.02,1.87-9.75,2.4-17.21,3.47-32.13.82-11.52,1.53-21.67.87-33.87-.67-12.46-.87-14.76-.87-14.76-.44-5.2.48-10.59-.87-15.63-.11-.42-.41-1.48,0-2.61.77-2.14,3.53-3.05,5.42-3.47h24.39c1.89.43,4.64,1.34,5.41,3.47.42,1.13.11,2.19,0,2.61-1.35,5.04-.43,10.43-.87,15.63,0,0-.19,2.3-.87,14.76-.65,12.2.04,22.34.87,33.87,1.08,14.92,1.62,22.38,3.47,32.13,2.41,12.63,6.56,23.93,14.76,46.02,8.24,22.2,9.68,23.47,12.16,33,4.36,16.69,4.73,31.13,4.34,40.81Z"/>
    <path class="cls-5" d="m36.71,357.76c.28-1.38,1.7-7.77-.87-12.16-2.55-4.36-6.69-3.92-14.76-7.82-1.97-.96-9.97-4.82-14.76-10.42-7.19-8.4-6.5-19.89-6.08-26.92.47-7.83,4.08-17.49,11.29-36.47,2.1-5.53,3.89-10.06,5.08-13.03h20.3c1.96,36.76,3.92,73.52,5.88,110.28.48,1.68,2.08,6.58,6.95,10.42,5.05,3.99,10.44,4.31,12.16,4.34H13.26v-3.47c.8-.02,17.12-.51,21.71-9.55.56-1.11,1.29-3.01,1.74-5.21Z"/>
    <path class="cls-3" d="m75.32,327.37c-4.79,5.6-12.79,9.47-14.76,10.42-8.08,3.9-12.2,3.46-14.76,7.82-2.57,4.39-1.15,10.78-.87,12.16.45,2.2,1.17,4.1,1.74,5.21,4.59,9.04,20.91,9.53,21.71,9.55v3.47h-6.48c-1.72-.03-7.1-.36-12.16-4.34-4.86-3.84-6.47-8.74-6.95-10.42-1.96-36.76-3.92-73.52-5.88-110.28h28.12c1.19,2.97,2.98,7.49,5.08,13.03,7.21,18.98,10.82,28.64,11.29,36.47.43,7.03,1.11,18.52-6.08,26.92Z"/>
    <path class="cls-8" d="m351.26,265.31c-.11,19.16-.23,38.33-.36,57.49-13.26-19.03-26.53-38.06-39.79-57.09,13.38-.13,26.77-.27,40.15-.41Z"/>
    <path class="cls-2" d="m380.06,372.53v3.47h-43.56c1.62-.25,5.53-1.09,8.96-4.34,5.34-5.05,5.24-11.89,5.21-13.03.05-8.2.1-16.39.16-24.58v-.03c.08-3.66.15-7.33.23-10.99-.05-.07-.1-.15-.16-.22h0c.13-19.17.25-38.34.36-57.5,15.27-.16,30.54-.3,45.81-.46-13.03,19.39-26.05,38.79-39.08,58.18.02,11.58.03,23.16.05,34.73.28,2.21.94,3.92,1.63,5.21,5.1,9.5,19.2,9.56,20.37,9.55Z"/>
    <path class="cls-8" d="m350.67,358.63c.03,1.14.13,7.97-5.21,13.03-3.43,3.25-7.34,4.09-8.96,4.34h-8.16v-3.47c1.16,0,15.27-.05,20.37-9.55.69-1.29,1.35-3,1.63-5.21.16-7.9.32-15.81.49-23.71-.05,8.2-.1,16.39-.16,24.58Z"/>
  </g>
  <path class="cls-5" d="m453.17,7.09c2.27,0,4.06,0,5.86,0,51.85,0,103.7-.12,155.55.04,31.41.1,60.5,7.98,85.28,28.53,26.32,21.82,40.94,50.57,46.15,84.22,5.74,37.12-.07,72.33-20.23,104.27-20.94,33.18-51.36,52.38-89.69,55.96-26.87,2.51-54.1,1.18-81.16,1.56-2.12.03-4.24,0-7.02,0,0,2.53,0,4.49,0,6.45,0,27.17-.11,54.34.1,81.51.04,4.7-.93,6.37-5.94,6.33-27.92-.25-55.84-.12-83.76-.13-1.62,0-3.24-.15-5.14-.25V7.09Zm95.15,84.93v104.42c2.05,0,3.69,0,5.32,0,19.92,0,39.84-.13,59.76.04,13.91.12,24.52-5.92,31.44-17.78,11.79-20.2,12.85-41.54,3.77-62.99-6.47-15.28-18.17-23.63-35.01-23.62-17.43,0-34.86-.04-52.29-.06-4.27,0-8.55,0-12.99,0Z"/>
  <path class="cls-5" d="m910.03,375.97c-16.66.02-48.93-2.42-81.07-22.38-7.72-4.79-23.97-15.13-38.46-34.87-8.43-11.48-14.97-24.48-19.53-39.01-11.04-35.12-11.25-70.58.56-105.4,15.34-45.26,47.02-74.13,91.91-87.14,50.21-14.55,97.58-7.44,139.77,24.86,29.93,22.91,45.6,54.66,50.4,92.06,3.84,29.96,1.48,59.37-10.6,87.25-7.92,18.27-18.4,33.33-31.17,45.45-26.32,24.99-55.99,32.09-69.97,35.24-13.07,2.95-24.2,3.75-31.82,3.94Zm2.07-89.93c18.39-.67,34.79-9.76,44.69-29.28,6.1-12.04,7-25.06,5.68-38.38-2.19-22.12-17.11-40.39-38.11-46.32-21.98-6.2-45.44,1.59-58.15,19.56-9.48,13.41-11.64,28.6-10.18,44.71,2.6,28.78,24.78,49.65,56.07,49.71Z"/>
  <path class="cls-5" d="m1365.42,257.64c-.04.21-.09.41-.13.62-.4,1.88-.8,3.76-1.18,5.62l-.03.13c-1.78,8.33-3.35,16.64-5.93,24.59-13.42,41.29-41.63,67.68-82.24,79.6-51.38,15.06-100.12,8.88-143.71-24.18-30.87-23.43-47.41-55.74-52.15-94.31-4.07-33.12.09-65.06,16.19-94.51,22.3-40.79,57.55-63.56,102.01-71.76,38.37-7.07,75.19-1.46,108.89,19.2,29.83,18.29,47.01,44.99,54.14,78.56,0,.06.03.12.04.18.16.77.32,1.56.47,2.34.09.42.16.84.24,1.27.12.61.22,1.21.33,1.82.11.62.21,1.22.31,1.84l.03.13c.13.86.27,1.72.4,2.58.13.9.26,1.82.39,2.73l.1.55h-28.93c-20.45,0-40.89,0-61.34.06-3.25,0-5.28-.8-7.22-3.89-11.06-17.6-28.08-21.96-46.93-19.44-25.88,3.46-42.37,23.22-43.83,50.85-1,19.08,3.8,36.05,17.82,49.58,21.92,21.16,63.61,16,75.78-11.5.56-1.27,2.69-2.61,4.08-2.61,2.46,0,4.91-.02,7.37-.03h85.05Z"/>
  <path class="cls-5" d="m1747.55,368.72c-.02-4.35-.51-8.58-2.51-12.9-53.62-115.7-107.06-231.48-160.4-347.31-.23-.5-1.22-3.11-3.77-4.85-1.72-1.17-3.65-1.6-5.44-1.68h-27.21c-1.79.08-3.72.51-5.44,1.68-2.54,1.74-3.54,4.35-3.77,4.85-53.34,115.83-106.79,231.61-160.4,347.31-1.94,4.18-2.45,8.27-2.51,12.46,0,.33,0,.67,0,1.01v6.68l7.79-.02h1.22c26.85.03,53.69.07,80.52-.12,1.57,0,3.83-1.77,4.59-3.32,6.16-12.69,12.13-25.48,17.95-38.34,1.44-3.16,3.19-4.44,6.74-4.43,22.26.06,44.52.1,66.79.1h.32c22.26,0,44.5-.04,66.75-.1,3.55,0,5.31,1.27,6.74,4.43,5.82,12.85,11.79,25.65,17.95,38.34.75,1.55,3.02,3.31,4.59,3.32,27.22.19,54.46.15,81.69.12h.63l7.22.03v-6.78c0-.16,0-.32,0-.48Zm-226.77-120.01c13.65-31.76,27.1-63.05,41.04-95.46,13.93,32.41,27.38,63.7,41.03,95.46h-82.07Z"/>
  <path class="cls-5" d="m2078.34,375.88h-5.57c-28.08,0-56.16-.09-84.24.1-3.91.02-5.84-1.14-7.42-4.83-13.84-32.27-27.89-64.45-41.89-96.66-4.88-11.22-9.81-22.43-15.01-34.33-5.2,11.9-10.12,23.11-15.01,34.33-14,32.21-28.04,64.39-41.89,96.66-1.58,3.69-3.51,4.85-7.42,4.83-28.08-.19-56.16-.1-84.24-.1h-5.57c.02-6.59-1.13-12.66,1.92-18.87,41.62-84.71,83.08-169.51,124.58-254.28.33-.67.5-1.05.89-1.81,2.9-5.8,4.4-8.74,6.76-10.43,1.07-.76,2.9-1.73,5.78-1.96h28.4c2.88.23,4.71,1.19,5.78,1.96,2.36,1.68,3.86,4.63,6.76,10.43.39.76.56,1.14.89,1.81,41.5,84.77,82.96,169.57,124.58,254.28,3.04,6.21,1.9,12.28,1.92,18.87Z"/>
</svg>